<?xml version="1.0" encoding="utf-8"?>
<!-- Generator: Adobe Illustrator 26.0.2, SVG Export Plug-In . SVG Version: 6.00 Build 0)  -->
<svg version="1.1" id="레이어_1" xmlns="http://www.w3.org/2000/svg" xmlns:xlink="http://www.w3.org/1999/xlink" x="0px"
	 y="0px" viewBox="0 0 24 24" style="enable-background:new 0 0 24 24;" xml:space="preserve">
<style type="text/css">
	.st0{fill:#D4859E;}
</style>
<path class="st0" d="M12,1L3,5v6c0,1.4,0.2,2.7,0.7,4s1.1,2.5,1.9,3.6s1.8,2,2.8,2.8c1,0.8,2.3,1.3,3.6,1.6c1.3-0.3,2.5-0.9,3.6-1.6
	c1.1-0.7,2-1.7,2.8-2.8c0.8-1.1,1.4-2.3,1.9-3.6s0.7-2.7,0.7-4V5L12,1z M19,11.2c0,1.1-0.2,2.1-0.6,3.2c-0.3,0.8-0.7,1.6-1.1,2.3
	C17,16,16.6,15.5,16.1,15s-1.1-0.9-1.8-1.2s-1.5-0.3-2.3-0.3s-1.6,0.1-2.3,0.4C9,14.2,8.4,14.5,7.9,15S7,16,6.7,16.7
	c-0.5-0.7-0.8-1.5-1.1-2.3c-0.4-1-0.6-2.1-0.6-3.2V6.3l7-3.1l7,3.1V11.2z"/>
<path class="st0" d="M9.9,7.8C9.4,8.3,9.1,9,9.1,9.8s0.3,1.5,0.9,2.1c0.6,0.6,1.3,0.9,2.1,0.9c0.8,0,1.5-0.3,2.1-0.9
	c0.6-0.6,0.9-1.3,0.9-2.1s-0.3-1.5-0.9-2.1c-0.6-0.6-1.4-0.8-2.2-0.8S10.5,7.2,9.9,7.8z"/>
</svg>
