<svg width="56" height="57" viewBox="0 0 56 57" fill="none" xmlns="http://www.w3.org/2000/svg">
<rect y="0.5" width="56" height="56" rx="28" fill="#D4859E" fill-opacity="0.16"/>
<path d="M28.3438 15C26.5104 15 24.7812 15.3542 23.1562 16.0625C21.5312 16.75 20.1146 17.6979 18.9062 18.9062C17.6979 20.1146 16.7396 21.5312 16.0312 23.1562C15.3438 24.7604 15 26.4792 15 28.3125C15 30.1667 15.3438 31.9062 16.0312 33.5312C16.7396 35.1354 17.6979 36.5417 18.9062 37.75C20.1146 38.9583 21.5312 39.9167 23.1562 40.625C24.7812 41.3125 26.5104 41.6562 28.3438 41.6562C30.1771 41.6562 31.9062 41.3125 33.5312 40.625C35.1562 39.9167 36.5729 38.9583 37.7812 37.75C38.9896 36.5417 39.9375 35.1354 40.625 33.5312C41.3333 31.9062 41.6875 30.1667 41.6875 28.3125C41.6875 26.4792 41.3333 24.7604 40.625 23.1562C39.9375 21.5312 38.9896 20.1146 37.7812 18.9062C36.5729 17.6979 35.1562 16.75 33.5312 16.0625C31.9062 15.3542 30.1771 15 28.3438 15ZM38.9062 27H34.9688C34.8438 25.0208 34.5208 23.3333 34 21.9375C33.4792 20.5208 32.8958 19.3438 32.25 18.4062C33.1458 18.7604 33.9688 19.2292 34.7188 19.8125C35.4896 20.375 36.1562 21.0312 36.7188 21.7812C37.3021 22.5104 37.7812 23.3229 38.1562 24.2188C38.5312 25.0938 38.7812 26.0208 38.9062 27ZM28.3125 38.6875C28.0208 38.4375 27.6667 38.0833 27.25 37.625C26.8333 37.1458 26.4271 36.5417 26.0312 35.8125C25.6354 35.0833 25.2812 34.2188 24.9688 33.2188C24.6771 32.1979 24.4792 31.0104 24.375 29.6562H32.2812C32.1979 31.0104 32 32.1979 31.6875 33.2188C31.375 34.2188 31.0208 35.0833 30.625 35.8125C30.2292 36.5417 29.8125 37.1458 29.375 37.625C28.9583 38.0833 28.6042 38.4375 28.3125 38.6875ZM24.375 27C24.4792 25.6458 24.6771 24.4583 24.9688 23.4375C25.2812 22.4167 25.6354 21.5417 26.0312 20.8125C26.4479 20.0833 26.8542 19.4896 27.25 19.0312C27.6667 18.5521 28.0208 18.1875 28.3125 17.9375C28.6042 18.1875 28.9583 18.5521 29.375 19.0312C29.8125 19.4896 30.2292 20.0833 30.625 20.8125C31.0208 21.5417 31.375 22.4167 31.6875 23.4375C32 24.4583 32.1979 25.6458 32.2812 27H24.375ZM24.4062 18.4062C23.7812 19.3438 23.2083 20.5208 22.6875 21.9375C22.1667 23.3333 21.8438 25.0208 21.7188 27H17.7812C17.9062 26.0208 18.1458 25.0938 18.5 24.2188C18.875 23.3229 19.3542 22.5104 19.9375 21.7812C20.5208 21.0312 21.1875 20.375 21.9375 19.8125C22.6875 19.2292 23.5104 18.7604 24.4062 18.4062ZM17.7812 29.6562H21.7188C21.8438 31.6146 22.1667 33.3021 22.6875 34.7188C23.2083 36.1146 23.7812 37.2812 24.4062 38.2188C23.5104 37.8646 22.6875 37.4062 21.9375 36.8438C21.1875 36.2604 20.5208 35.6042 19.9375 34.875C19.3542 34.1458 18.875 33.3438 18.5 32.4688C18.1458 31.5729 17.9062 30.6354 17.7812 29.6562ZM32.25 38.25C32.8958 37.3125 33.4792 36.1458 34 34.75C34.5208 33.3333 34.8438 31.6354 34.9688 29.6562H38.9062C38.7812 30.6354 38.5312 31.5729 38.1562 32.4688C37.7812 33.3438 37.3021 34.1562 36.7188 34.9062C36.1562 35.6354 35.4896 36.2917 34.7188 36.875C33.9688 37.4375 33.1458 37.8958 32.25 38.25Z" fill="#D4859E"/>
</svg>
