<svg width="24" height="24" viewBox="0 0 24 24" fill="none" xmlns="http://www.w3.org/2000/svg">
<path d="M11.5156 5.98438H9.5V9.5H6.00781V11.4922H9.5V14.9844H11.5156V11.4922H15.0078V9.5H11.5156V5.98438ZM19.0156 10.4844C19.0156 9.3125 18.7891 8.21094 18.3359 7.17969C17.8984 6.14844 17.2891 5.25 16.5078 4.48438C15.7422 3.71875 14.8438 3.11719 13.8125 2.67969C12.7812 2.22656 11.6797 2 10.5078 2C9.33594 2 8.23438 2.22656 7.20312 2.67969C6.17188 3.11719 5.26562 3.71875 4.48438 4.48438C3.71875 5.25 3.10938 6.14844 2.65625 7.17969C2.21875 8.21094 2 9.3125 2 10.4844C2 11.6562 2.21875 12.7656 2.65625 13.8125C3.10938 14.8438 3.71875 15.7422 4.48438 16.5078C5.26562 17.2734 6.17188 17.8828 7.20312 18.3359C8.23438 18.7734 9.33594 18.9922 10.5078 18.9922C11.6797 18.9922 12.7812 18.7734 13.8125 18.3359C14.8438 17.8828 15.7422 17.2734 16.5078 16.5078C17.2891 15.7422 17.8984 14.8438 18.3359 13.8125C18.7891 12.7656 19.0156 11.6562 19.0156 10.4844ZM10.5078 17C9.61719 17 8.77344 16.8281 7.97656 16.4844C7.19531 16.1406 6.50781 15.6797 5.91406 15.1016C5.32031 14.5078 4.85156 13.8203 4.50781 13.0391C4.17969 12.2422 4.01562 11.3906 4.01562 10.4844C4.01562 9.59375 4.17969 8.75781 4.50781 7.97656C4.85156 7.17969 5.32031 6.49219 5.91406 5.91406C6.50781 5.32031 7.19531 4.85156 7.97656 4.50781C8.77344 4.16406 9.61719 3.99219 10.5078 3.99219C11.3984 3.99219 12.2344 4.16406 13.0156 4.50781C13.8125 4.85156 14.5078 5.32031 15.1016 5.91406C15.6953 6.49219 16.1562 7.17969 16.4844 7.97656C16.8281 8.75781 17 9.59375 17 10.4844C17 11.3906 16.8281 12.2422 16.4844 13.0391C16.1562 13.8203 15.6953 14.5078 15.1016 15.1016C14.5078 15.6797 13.8125 16.1406 13.0156 16.4844C12.2344 16.8281 11.3984 17 10.5078 17ZM16.4844 17.9375L17.9141 16.4844L21.9922 20.5625L20.5391 21.9922L16.4844 17.9375Z" fill="#D4859E"/>
</svg>
