<svg width="24" height="24" viewBox="0 0 24 24" fill="none" xmlns="http://www.w3.org/2000/svg">
<path d="M7.94673 8.9871H11.9167V11.0035H7.94673V8.9871ZM7.94673 11.9883H15.8866V14.0047H7.94673V11.9883ZM7.94673 14.9894H15.8866V17.0059H7.94673V14.9894ZM18.8583 2.98476H14.8883V2H8.94501V2.98476H4.97507C4.71196 2.98476 4.4798 3.08636 4.27859 3.28957C4.09286 3.47714 4 3.71161 4 3.99297V20.9918C4 21.2732 4.09286 21.5154 4.27859 21.7186C4.4798 21.9062 4.71196 22 4.97507 22H18.8583C19.1214 22 19.3458 21.9062 19.5315 21.7186C19.7327 21.5154 19.8333 21.2732 19.8333 20.9918V3.99297C19.8333 3.71161 19.7327 3.47714 19.5315 3.28957C19.3458 3.08636 19.1214 2.98476 18.8583 2.98476ZM17.86 20.007H5.97336V5.00117H8.94501V5.98593H14.8883V5.00117H17.86V20.007Z" fill="#D4859E"/>
</svg>
