<svg width="57" height="57" viewBox="0 0 57 57" fill="none" xmlns="http://www.w3.org/2000/svg">
<rect x="0.5" y="0.5" width="56" height="56" rx="28" fill="#D4859E" fill-opacity="0.16"/>
<g clip-path="url(#clip0_400_24103)">
<path d="M41.3 36.7V33.7H38.6V36.7H17.3V20.7H38.6V23.7H41.3V19.3C41.3 18.9 41.2 18.6 40.9 18.3C40.7 18.1 40.4 18 40 18H16C15.6 18 15.3 18.1 15 18.4C14.8 18.7 14.7 19 14.7 19.3V36.6H12V38C12 38.4 12.1 38.7 12.4 39C12.7 39.3 13 39.4 13.4 39.4H42.7C43.1 39.4 43.4 39.3 43.7 39C44 38.7 44.1 38.4 44.1 38V36.7H41.3Z" fill="#D4859E"/>
<path d="M42 28.7L36.7001 24.7V27.3H31.3V30H36.7001V32.7L42 28.7Z" fill="#D4859E"/>
</g>
<defs>
<clipPath id="clip0_400_24103">
<rect width="32" height="21.3" fill="white" transform="translate(12 18)"/>
</clipPath>
</defs>
</svg>
