<svg width="24" height="24" viewBox="0 0 24 24" fill="none" xmlns="http://www.w3.org/2000/svg">
<path d="M12 1L3 5V11C3 12.4 3.2 13.7 3.7 15C4.2 16.3 4.8 17.5 5.6 18.6C6.4 19.7 7.4 20.6 8.4 21.4C9.4 22.2 10.7 22.7 12 23C13.3 22.7 14.5 22.1 15.6 21.4C16.7 20.7 17.6 19.7 18.4 18.6C19.2 17.5 19.8 16.3 20.3 15C20.8 13.7 21 12.3 21 11V5L12 1ZM19 11.2C19 12.3 18.8 13.3 18.4 14.4C18.1 15.2 17.7 16 17.3 16.7C17 16 16.6 15.5 16.1 15C15.6 14.5 15 14.1 14.3 13.8C13.6 13.5 12.8 13.5 12 13.5C11.2 13.5 10.4 13.6 9.7 13.9C9 14.2 8.4 14.5 7.9 15C7.4 15.5 7 16 6.7 16.7C6.2 16 5.9 15.2 5.6 14.4C5.2 13.4 5 12.3 5 11.2V6.3L12 3.2L19 6.3V11.2Z" fill="white"/>
<path d="M9.9 7.8C9.4 8.3 9.1 9 9.1 9.8C9.1 10.6 9.4 11.3 10 11.9C10.6 12.5 11.3 12.8 12.1 12.8C12.9 12.8 13.6 12.5 14.2 11.9C14.8 11.3 15.1 10.6 15.1 9.8C15.1 9 14.8 8.3 14.2 7.7C13.6 7.1 12.8 6.9 12 6.9C11.2 6.9 10.5 7.2 9.9 7.8Z" fill="white"/>
</svg>
