<svg width="56" height="57" viewBox="0 0 56 57" fill="none" xmlns="http://www.w3.org/2000/svg">
<rect y="0.5" width="56" height="56" rx="28" fill="#AA1239" fill-opacity="0.16"/>
<path d="M37 14H18.3125C17.9583 14 17.6458 14.1354 17.375 14.4062C17.125 14.6562 17 14.9688 17 15.3438V42C17 42.375 17.125 42.6875 17.375 42.9375C17.6458 43.2083 17.9583 43.3438 18.3125 43.3438H37C37.3542 43.3438 37.6562 43.2083 37.9062 42.9375C38.1771 42.6875 38.3125 42.375 38.3125 42V15.3438C38.3125 14.9688 38.1771 14.6562 37.9062 14.4062C37.6562 14.1354 37.3542 14 37 14ZM30.3438 40.6562H25V39.3438H30.3438V40.6562ZM35.6562 36.6562H19.6562V18H35.6562V36.6562Z" fill="#AA1239"/>
</svg>
