<svg width="56" height="57" viewBox="0 0 56 57" fill="none" xmlns="http://www.w3.org/2000/svg">
<rect y="0.5" width="56" height="56" rx="28" fill="#D4859E" fill-opacity="0.16"/>
<path d="M24 35.3438H40V38H24V35.3438ZM24 19.3438H40V22H24V19.3438ZM24 27.3438H40V30H24V27.3438ZM21.3438 20.6562C21.3438 21.4062 21.0833 22.0417 20.5625 22.5625C20.0417 23.0833 19.4062 23.3438 18.6562 23.3438C17.9271 23.3438 17.3021 23.0833 16.7812 22.5625C16.2604 22.0417 16 21.4062 16 20.6562C16 19.9271 16.2604 19.3021 16.7812 18.7812C17.3021 18.2604 17.9271 18 18.6562 18C19.4062 18 20.0417 18.2604 20.5625 18.7812C21.0833 19.3021 21.3438 19.9271 21.3438 20.6562ZM21.3438 28.6562C21.3438 29.4062 21.0833 30.0417 20.5625 30.5625C20.0417 31.0833 19.4062 31.3438 18.6562 31.3438C17.9271 31.3438 17.3021 31.0833 16.7812 30.5625C16.2604 30.0417 16 29.4062 16 28.6562C16 27.9271 16.2604 27.3021 16.7812 26.7812C17.3021 26.2604 17.9271 26 18.6562 26C19.4062 26 20.0417 26.2604 20.5625 26.7812C21.0833 27.3021 21.3438 27.9271 21.3438 28.6562ZM21.3438 36.6562C21.3438 37.4062 21.0833 38.0417 20.5625 38.5625C20.0417 39.0833 19.4062 39.3438 18.6562 39.3438C17.9271 39.3438 17.3021 39.0833 16.7812 38.5625C16.2604 38.0417 16 37.4062 16 36.6562C16 35.9271 16.2604 35.3021 16.7812 34.7812C17.3021 34.2604 17.9271 34 18.6562 34C19.4062 34 20.0417 34.2604 20.5625 34.7812C21.0833 35.3021 21.3438 35.9271 21.3438 36.6562Z" fill="#D4859E"/>
</svg>
