<svg width="24" height="24" viewBox="0 0 24 24" fill="none" xmlns="http://www.w3.org/2000/svg">
<path d="M13.3724 10.628C12.6443 9.9002 11.657 9.49133 10.6276 9.49133C9.59818 9.49133 8.61088 9.9002 7.88281 10.628L5.13712 13.3731C4.40903 14.1013 4 15.0888 4 16.1186C4 17.1484 4.40903 18.136 5.13712 18.8641C5.8652 19.5923 6.8527 20.0013 7.88237 20.0013C8.91203 20.0013 9.89953 19.5923 10.6276 18.8641L12 17.4916" stroke="#AA1239" stroke-width="2" stroke-linecap="square" stroke-linejoin="round"/>
<path d="M10.6277 13.3733C11.3558 14.1011 12.3431 14.51 13.3725 14.51C14.4019 14.51 15.3892 14.1011 16.1173 13.3733L18.863 10.6282C19.5911 9.90009 20.0001 8.9125 20.0001 7.88273C20.0001 6.85297 19.5911 5.86538 18.863 5.13723C18.1349 4.40907 17.1474 4 16.1177 4C15.0881 4 14.1006 4.40907 13.3725 5.13723L12.0001 6.50976" stroke="#AA1239" stroke-width="2" stroke-linecap="square" stroke-linejoin="round"/>
</svg>
