<svg width="24" height="24" viewBox="0 0 24 24" fill="none" xmlns="http://www.w3.org/2000/svg">
<path d="M12.0117 2C10.6362 2 9.3388 2.26573 8.11958 2.79719C6.90035 3.31301 5.83744 4.02423 4.93083 4.93083C4.02423 5.83744 3.3052 6.90035 2.77374 8.11958C2.25791 9.32317 2 10.6127 2 11.9883C2 13.3794 2.25791 14.6846 2.77374 15.9039C3.3052 17.1075 4.02423 18.1626 4.93083 19.0692C5.83744 19.9758 6.90035 20.6948 8.11958 21.2263C9.3388 21.7421 10.6362 22 12.0117 22C13.3873 22 14.6846 21.7421 15.9039 21.2263C17.1231 20.6948 18.186 19.9758 19.0926 19.0692C19.9992 18.1626 20.7104 17.1075 21.2263 15.9039C21.7577 14.6846 22.0234 13.3794 22.0234 11.9883C22.0234 10.6127 21.7577 9.32317 21.2263 8.11958C20.7104 6.90035 19.9992 5.83744 19.0926 4.93083C18.186 4.02423 17.1231 3.31301 15.9039 2.79719C14.6846 2.26573 13.3873 2 12.0117 2ZM19.9367 11.0035H16.9824C16.8886 9.51856 16.6463 8.25244 16.2556 7.20516C15.8648 6.14224 15.4271 5.25909 14.9426 4.55569C15.6147 4.82141 16.2321 5.17311 16.7948 5.61079C17.3732 6.03282 17.8734 6.52521 18.2954 7.08792C18.7331 7.63501 19.0926 8.24463 19.374 8.91676C19.6553 9.57327 19.8429 10.2689 19.9367 11.0035ZM11.9883 19.7726C11.7694 19.585 11.5037 19.3193 11.1911 18.9754C10.8785 18.6159 10.5737 18.1626 10.2767 17.6155C9.97968 17.0684 9.71395 16.4197 9.47948 15.6694C9.26065 14.9035 9.11215 14.0125 9.034 12.9965H14.966C14.9035 14.0125 14.755 14.9035 14.5205 15.6694C14.286 16.4197 14.0203 17.0684 13.7233 17.6155C13.4263 18.1626 13.1137 18.6159 12.7855 18.9754C12.4728 19.3193 12.2071 19.585 11.9883 19.7726ZM9.034 11.0035C9.11215 9.98749 9.26065 9.09652 9.47948 8.3306C9.71395 7.56467 9.97968 6.90817 10.2767 6.36108C10.5893 5.81399 10.8941 5.3685 11.1911 5.02462C11.5037 4.6651 11.7694 4.39156 11.9883 4.20399C12.2071 4.39156 12.4728 4.6651 12.7855 5.02462C13.1137 5.3685 13.4263 5.81399 13.7233 6.36108C14.0203 6.90817 14.286 7.56467 14.5205 8.3306C14.755 9.09652 14.9035 9.98749 14.966 11.0035H9.034ZM9.05744 4.55569C8.58851 5.25909 8.15866 6.14224 7.76788 7.20516C7.3771 8.25244 7.13482 9.51856 7.04103 11.0035H4.08675C4.18054 10.2689 4.3603 9.57327 4.62603 8.91676C4.90739 8.24463 5.2669 7.63501 5.70457 7.08792C6.14224 6.52521 6.64244 6.03282 7.20516 5.61079C7.76788 5.17311 8.38531 4.82141 9.05744 4.55569ZM4.08675 12.9965H7.04103C7.13482 14.4658 7.3771 15.7319 7.76788 16.7948C8.15866 17.8421 8.58851 18.7175 9.05744 19.4209C8.38531 19.1551 7.76788 18.8113 7.20516 18.3892C6.64244 17.9515 6.14224 17.4592 5.70457 16.9121C5.2669 16.365 4.90739 15.7632 4.62603 15.1067C4.3603 14.4345 4.18054 13.7311 4.08675 12.9965ZM14.9426 19.4443C15.4271 18.7409 15.8648 17.8656 16.2556 16.8183C16.6463 15.7554 16.8886 14.4814 16.9824 12.9965H19.9367C19.8429 13.7311 19.6553 14.4345 19.374 15.1067C19.0926 15.7632 18.7331 16.3728 18.2954 16.9355C17.8734 17.4826 17.3732 17.975 16.7948 18.4127C16.2321 18.8347 15.6147 19.1786 14.9426 19.4443Z" fill="#AA1239"/>
</svg>
