<svg width="56" height="57" viewBox="0 0 56 57" fill="none" xmlns="http://www.w3.org/2000/svg">
<rect y="0.5" width="56" height="56" rx="28" fill="#D4859E" fill-opacity="0.16"/>
<path d="M27.6562 19.6875C28.3854 19.6875 29.0104 19.9479 29.5312 20.4688C30.0521 20.9896 30.3125 21.6146 30.3125 22.3438C30.3125 23.0729 30.0521 23.6979 29.5312 24.2188C29.0104 24.7396 28.3854 25 27.6562 25C26.9271 25 26.3021 24.7396 25.7812 24.2188C25.2604 23.6979 25 23.0729 25 22.3438C25 21.6146 25.2604 20.9896 25.7812 20.4688C26.3021 19.9479 26.9271 19.6875 27.6562 19.6875ZM27.6562 17C26.1771 17 24.9167 17.5208 23.875 18.5625C22.8333 19.6042 22.3125 20.8646 22.3125 22.3438C22.3125 23.8229 22.8333 25.0833 23.875 26.125C24.9167 27.1667 26.1771 27.6875 27.6562 27.6875C29.1354 27.6875 30.3958 27.1667 31.4375 26.125C32.4792 25.0833 33 23.8229 33 22.3438C33 20.8646 32.4792 19.6042 31.4375 18.5625C30.3958 17.5208 29.1354 17 27.6562 17ZM38.3125 39.6875H35.6562C35.6562 38.5 35.4583 37.4167 35.0625 36.4375C34.6667 35.4583 34.1146 34.6146 33.4062 33.9062C32.7188 33.1979 31.8854 32.6562 30.9062 32.2812C29.9271 31.8854 28.8438 31.6875 27.6562 31.6875C26.4688 31.6875 25.3854 31.8854 24.4062 32.2812C23.4271 32.6562 22.5833 33.1979 21.875 33.9062C21.1875 34.6146 20.6458 35.4583 20.25 36.4375C19.8542 37.4167 19.6562 38.5 19.6562 39.6875H17C17 38.125 17.2604 36.6979 17.7812 35.4062C18.3229 34.0938 19.0625 32.9688 20 32.0312C20.9583 31.0729 22.0833 30.3333 23.375 29.8125C24.6875 29.2708 26.1146 29 27.6562 29C29.1979 29 30.6146 29.2708 31.9062 29.8125C33.2188 30.3333 34.3438 31.0729 35.2812 32.0312C36.2396 32.9688 36.9792 34.0938 37.5 35.4062C38.0417 36.6979 38.3125 38.125 38.3125 39.6875Z" fill="#D4859E"/>
</svg>
