<svg width="24" height="24" viewBox="0 0 24 24" fill="none" xmlns="http://www.w3.org/2000/svg">
<path d="M22.0897 7.84061H16.34C16.0705 7.84061 15.8384 7.93794 15.6437 8.13259C15.4641 8.31227 15.3742 8.52938 15.3742 8.78392V18.3742C15.3742 18.6437 15.4641 18.8758 15.6437 19.0705C15.8384 19.2502 16.0705 19.34 16.34 19.34H22.0897C22.3442 19.34 22.5613 19.2502 22.741 19.0705C22.9357 18.8758 23.033 18.6437 23.033 18.3742V8.78392C23.033 8.52938 22.9357 8.31227 22.741 8.13259C22.5613 7.93794 22.3442 7.84061 22.0897 7.84061ZM21.1239 16.4652H17.2833V9.74969H21.1239V16.4652ZM21.1239 4.96577C21.1239 4.69625 21.0266 4.47165 20.8319 4.29198C20.6523 4.09733 20.4277 4 20.1582 4H3.87485C3.60533 4 3.37325 4.09733 3.17859 4.29198C2.99892 4.47165 2.90908 4.69625 2.90908 4.96577V5.90908V16.4652H1V19.34H14.4085V16.4652H4.84061V5.90908H19.2148V6.87485H21.1239V4.96577Z" fill="#D4859E"/>
</svg>
