<svg width="57" height="57" viewBox="0 0 57 57" fill="none" xmlns="http://www.w3.org/2000/svg">
<rect x="0.5" y="0.5" width="56" height="56" rx="28" fill="#D4859E" fill-opacity="0.16"/>
<path d="M42 17H15.3125C14.9583 17 14.6458 17.1354 14.375 17.4062C14.125 17.6562 14 17.9583 14 18.3125V37C14 37.3542 14.125 37.6667 14.375 37.9375C14.6458 38.1875 14.9583 38.3125 15.3125 38.3125H26L23.3125 42.3125V43.6562H34V42.3125L31.3125 38.3125H42C42.3542 38.3125 42.6562 38.1875 42.9062 37.9375C43.1771 37.6667 43.3125 37.3542 43.3125 37V18.3125C43.3125 17.9583 43.1771 17.6562 42.9062 17.4062C42.6562 17.1354 42.3542 17 42 17ZM40.6562 34.3125H16.6562V19.6562H40.6562V34.3125Z" fill="#D4859E"/>
</svg>
