<svg width="200" height="200" viewBox="0 0 200 200" fill="none" xmlns="http://www.w3.org/2000/svg">
<path fill-rule="evenodd" clip-rule="evenodd" d="M124.719 6H38V167.87L50.3739 155.041L62.7483 167.87L62.6234 168H62.8731L62.7483 167.87L75.1226 155.041L87.4969 167.87L87.372 168H88.1246L87.9997 167.87L100.374 155.041L112.748 167.87L112.623 168H113.376L113.251 167.87L125.626 155.041L138 167.87L137.875 168H138.628L138.503 167.87L150.877 155.041L163 167.61V37.752L124.719 6ZM38.1244 168L38 167.871V168H38.1244Z" fill="#EEEEEE"/>
<path d="M124.693 37.5L163 37.5L124.693 6L124.693 37.5Z" fill="#D6D6D6"/>
<path d="M74.3159 74.792C76.2226 74.792 77.9533 75.276 79.5079 76.244C81.0626 77.212 82.2799 78.5173 83.1599 80.16C84.0399 81.7733 84.4799 83.5187 84.4799 85.396C84.4799 87.3907 83.9666 89.2533 82.9399 90.984C81.9426 92.6853 80.5786 94.0493 78.8479 95.076C77.1173 96.0733 75.2546 96.572 73.2599 96.572C71.1479 96.572 69.1533 96.0733 67.2759 95.076C65.4279 94.0493 63.9466 92.656 62.8319 90.896C62.7146 90.7493 62.6559 90.544 62.6559 90.28C62.6559 89.8987 62.8173 89.576 63.1399 89.312C63.8146 88.7547 64.5626 88.212 65.3839 87.684C65.6773 87.5373 65.9119 87.464 66.0879 87.464C66.3813 87.464 66.6306 87.6107 66.8359 87.904C67.5986 89.0187 68.5519 89.9133 69.6959 90.588C70.8693 91.2333 72.0573 91.556 73.2599 91.556C74.3746 91.556 75.3866 91.292 76.2959 90.764C77.2346 90.2067 77.9679 89.4587 78.4959 88.52C79.0533 87.5813 79.3319 86.54 79.3319 85.396C79.3319 84.3107 79.0679 83.3133 78.5399 82.404C78.0119 81.4947 77.2933 80.776 76.3839 80.248C75.4746 79.6907 74.4919 79.412 73.4359 79.412C72.6146 79.412 71.7933 79.5733 70.9719 79.896C70.1506 80.2187 69.3733 80.688 68.6399 81.304C68.2293 81.6267 67.8479 81.788 67.4959 81.788C67.3786 81.788 67.1733 81.7587 66.8799 81.7L65.1639 81.216C64.9293 81.1573 64.7533 81.0253 64.6359 80.82C64.5186 80.6147 64.4746 80.4093 64.5039 80.204L66.7479 66.036C66.8066 65.596 67.0119 65.244 67.3639 64.98C67.7159 64.6867 68.1119 64.54 68.5519 64.54H81.2679C81.5319 64.54 81.7519 64.628 81.9279 64.804C82.1039 64.98 82.1919 65.2 82.1919 65.464V68.632C82.1919 68.896 82.1039 69.116 81.9279 69.292C81.7519 69.468 81.5319 69.556 81.2679 69.556H71.2359L70.3119 75.672C71.5733 75.0853 72.9079 74.792 74.3159 74.792ZM98.3568 96.572C94.6901 96.572 91.9181 95.1933 90.0408 92.436C88.1634 89.6787 87.2248 85.616 87.2248 80.248C87.2248 74.9093 88.1634 70.8613 90.0408 68.104C91.9474 65.3467 94.7194 63.968 98.3568 63.968C101.994 63.968 104.751 65.3467 106.629 68.104C108.506 70.8613 109.445 74.9093 109.445 80.248C109.445 85.6453 108.506 89.7227 106.629 92.48C104.781 95.208 102.023 96.572 98.3568 96.572ZM98.3568 91.556C99.7061 91.556 100.791 91.1747 101.613 90.412C102.434 89.6493 103.035 88.4467 103.417 86.804C103.798 85.1613 103.989 82.976 103.989 80.248C103.989 77.52 103.798 75.3493 103.417 73.736C103.035 72.0933 102.434 70.9053 101.613 70.172C100.791 69.4093 99.6914 69.028 98.3128 69.028C96.9634 69.028 95.8781 69.4093 95.0568 70.172C94.2354 70.9347 93.6341 72.152 93.2528 73.824C92.8714 75.4667 92.6808 77.6667 92.6808 80.424C92.6808 84.384 93.1208 87.2293 94.0008 88.96C94.8808 90.6907 96.3328 91.556 98.3568 91.556ZM123.925 96.572C120.258 96.572 117.486 95.1933 115.609 92.436C113.732 89.6787 112.793 85.616 112.793 80.248C112.793 74.9093 113.732 70.8613 115.609 68.104C117.516 65.3467 120.288 63.968 123.925 63.968C127.562 63.968 130.32 65.3467 132.197 68.104C134.074 70.8613 135.013 74.9093 135.013 80.248C135.013 85.6453 134.074 89.7227 132.197 92.48C130.349 95.208 127.592 96.572 123.925 96.572ZM123.925 91.556C125.274 91.556 126.36 91.1747 127.181 90.412C128.002 89.6493 128.604 88.4467 128.985 86.804C129.366 85.1613 129.557 82.976 129.557 80.248C129.557 77.52 129.366 75.3493 128.985 73.736C128.604 72.0933 128.002 70.9053 127.181 70.172C126.36 69.4093 125.26 69.028 123.881 69.028C122.532 69.028 121.446 69.4093 120.625 70.172C119.804 70.9347 119.202 72.152 118.821 73.824C118.44 75.4667 118.249 77.6667 118.249 80.424C118.249 84.384 118.689 87.2293 119.569 88.96C120.449 90.6907 121.901 91.556 123.925 91.556Z" fill="#AA1239"/>
<path d="M62 164.242L66.2426 160L93.1127 186.87C93.8937 187.651 93.8937 188.917 93.1127 189.698L91.6985 191.112C90.9174 191.893 89.6511 191.893 88.8701 191.112L62 164.242Z" fill="#D9D9D9"/>
<rect x="62" y="164.242" width="6" height="5" transform="rotate(-45 62 164.242)" fill="#949494"/>
<circle cx="48" cy="146" r="21" stroke="#ACACAC" stroke-width="4"/>
</svg>
