<svg width="200" height="200" viewBox="0 0 200 200" fill="none" xmlns="http://www.w3.org/2000/svg">
<path fill-rule="evenodd" clip-rule="evenodd" d="M124.719 6H38V167.87L50.3739 155.041L62.7483 167.87L62.6234 168H62.8731L62.7483 167.87L75.1226 155.041L87.4969 167.87L87.372 168H88.1246L87.9997 167.87L100.374 155.041L112.748 167.87L112.623 168H113.376L113.251 167.87L125.626 155.041L138 167.87L137.875 168H138.628L138.503 167.87L150.877 155.041L163 167.61V37.752L124.719 6ZM38.1244 168L38 167.871V168H38.1244Z" fill="#EEEEEE"/>
<path d="M124.693 37.5L163 37.5L124.693 6L124.693 37.5Z" fill="#D6D6D6"/>
<path d="M77.5126 96C77.2486 96 77.0286 95.912 76.8526 95.736C76.6766 95.56 76.5886 95.34 76.5886 95.076V89.268H64.3566C63.9166 89.268 63.5353 89.1213 63.2126 88.828C62.9193 88.5053 62.7726 88.124 62.7726 87.684V85L75.0046 65.2C75.2686 64.76 75.65 64.54 76.1486 64.54H79.9766C80.4166 64.54 80.7833 64.7013 81.0766 65.024C81.3993 65.3173 81.5606 65.684 81.5606 66.124V84.296H84.7726C85.0366 84.296 85.2566 84.384 85.4326 84.56C85.6086 84.736 85.6966 84.956 85.6966 85.22V88.344C85.6966 88.608 85.6086 88.828 85.4326 89.004C85.2566 89.18 85.0366 89.268 84.7726 89.268H81.5606V95.076C81.5606 95.34 81.4726 95.56 81.2966 95.736C81.1206 95.912 80.9006 96 80.6366 96H77.5126ZM76.5886 84.296V71.932L68.9766 84.296H76.5886ZM99.5384 96.572C95.8718 96.572 93.0998 95.1933 91.2224 92.436C89.3451 89.6787 88.4064 85.616 88.4064 80.248C88.4064 74.9093 89.3451 70.8613 91.2224 68.104C93.1291 65.3467 95.9011 63.968 99.5384 63.968C103.176 63.968 105.933 65.3467 107.81 68.104C109.688 70.8613 110.626 74.9093 110.626 80.248C110.626 85.6453 109.688 89.7227 107.81 92.48C105.962 95.208 103.205 96.572 99.5384 96.572ZM99.5384 91.556C100.888 91.556 101.973 91.1747 102.794 90.412C103.616 89.6493 104.217 88.4467 104.598 86.804C104.98 85.1613 105.17 82.976 105.17 80.248C105.17 77.52 104.98 75.3493 104.598 73.736C104.217 72.0933 103.616 70.9053 102.794 70.172C101.973 69.4093 100.873 69.028 99.4944 69.028C98.1451 69.028 97.0598 69.4093 96.2384 70.172C95.4171 70.9347 94.8158 72.152 94.4344 73.824C94.0531 75.4667 93.8624 77.6667 93.8624 80.424C93.8624 84.384 94.3024 87.2293 95.1824 88.96C96.0624 90.6907 97.5144 91.556 99.5384 91.556ZM127.747 96C127.483 96 127.263 95.912 127.087 95.736C126.911 95.56 126.823 95.34 126.823 95.076V89.268H114.591C114.151 89.268 113.769 89.1213 113.447 88.828C113.153 88.5053 113.007 88.124 113.007 87.684V85L125.239 65.2C125.503 64.76 125.884 64.54 126.383 64.54H130.211C130.651 64.54 131.017 64.7013 131.311 65.024C131.633 65.3173 131.795 65.684 131.795 66.124V84.296H135.007C135.271 84.296 135.491 84.384 135.667 84.56C135.843 84.736 135.931 84.956 135.931 85.22V88.344C135.931 88.608 135.843 88.828 135.667 89.004C135.491 89.18 135.271 89.268 135.007 89.268H131.795V95.076C131.795 95.34 131.707 95.56 131.531 95.736C131.355 95.912 131.135 96 130.871 96H127.747ZM126.823 84.296V71.932L119.211 84.296H126.823Z" fill="#D4859E"/>
<path d="M62 164.242L66.2426 160L93.1127 186.87C93.8937 187.651 93.8937 188.917 93.1127 189.698L91.6985 191.112C90.9174 191.893 89.6511 191.893 88.8701 191.112L62 164.242Z" fill="#D9D9D9"/>
<rect x="62" y="164.242" width="6" height="5" transform="rotate(-45 62 164.242)" fill="#949494"/>
<circle cx="48" cy="146" r="21" stroke="#ACACAC" stroke-width="4"/>
</svg>
