<svg width="200" height="200" viewBox="0 0 200 200" fill="none" xmlns="http://www.w3.org/2000/svg">
<path d="M100.5 189C51.0118 189 11 148.988 11 99.5C11 50.0118 51.0118 10 100.5 10C149.988 10 190 50.0118 190 99.5C190 148.988 149.988 189 100.5 189ZM100.5 20.5294C56.8029 20.5294 21.5294 55.8029 21.5294 99.5C21.5294 143.197 56.8029 178.471 100.5 178.471C144.197 178.471 179.471 143.197 179.471 99.5C179.471 55.8029 144.197 20.5294 100.5 20.5294Z" fill="#BCBCBC"/>
<path d="M95 135.667H106V146H95V135.667ZM103.8 125.333H97.2L95 84V53H106V84L103.8 125.333Z" fill="#BCBCBC"/>
</svg>
