<svg width="65" height="63" viewBox="0 0 65 63" fill="none" xmlns="http://www.w3.org/2000/svg">
<path d="M55.7427 12.4792L34.5427 3.41633C33.8969 3.14148 33.2047 3 32.5055 3C31.8064 3 31.1141 3.14148 30.4683 3.41633L9.26833 12.4792C7.29187 13.3176 6 15.3001 6 17.4978C6 39.9852 18.6427 55.5281 30.4573 60.5806C31.7602 61.1357 33.2287 61.1357 34.5317 60.5806C43.9944 56.5363 59 42.5681 59 17.4978C59 15.3001 57.7081 13.3176 55.7427 12.4792ZM32.511 53.5569L32.5 10.3948L51.9223 18.6987C51.5579 35.8502 42.8571 48.2777 32.511 53.5569Z" fill="#11B18B"/>
</svg>
