<svg width="56" height="56" viewBox="0 0 56 56" fill="none" xmlns="http://www.w3.org/2000/svg">
<rect width="56" height="56" rx="28" fill="white" fill-opacity="0.16"/>
<path d="M29.3 31.9H26.6V34.6H29.3V31.9Z" fill="white"/>
<path d="M29.3 21.2H26.6V30.5H29.3V21.2Z" fill="white"/>
<path d="M28 13L16 18.3V26.3C16 28.1 16.3 29.9 16.9 31.7C17.5 33.5 18.3 35 19.4 36.5C20.5 37.9 21.7 39.2 23.2 40.2C24.7 41.2 26.3 42 28 42.4C29.7 42 31.3 41.3 32.8 40.2C34.3 39.2 35.5 37.9 36.6 36.5C37.7 35.1 38.5 33.5 39.1 31.7C39.7 29.9 40 28.2 40 26.3V18.3L28 13ZM37.3 26.6C37.3 28 37 29.5 36.5 30.9C36 32.3 35.3 33.6 34.5 34.8C33.6 36 32.7 37 31.5 37.9C30.4 38.8 29.2 39.3 27.9 39.7C26.7 39.4 25.5 38.8 24.3 37.9C23.2 37 22.2 36 21.3 34.8C20.4 33.6 19.8 32.3 19.3 30.9C18.8 29.5 18.5 28.1 18.5 26.6V20.1L28 15.9L37.3 20.1V26.6Z" fill="white"/>
</svg>
