<svg width="56" height="56" viewBox="0 0 56 56" fill="none" xmlns="http://www.w3.org/2000/svg">
<rect width="56" height="56" rx="28" fill="white" fill-opacity="0.16"/>
<path d="M22.3125 29.6562H33V32.3125H22.3125V29.6562ZM22.3125 33.6562H33V36.3125H22.3125V33.6562ZM22.3125 25.6562H33V28.3125H22.3125V25.6562ZM37.9375 20.7188L32.5938 15.375C32.4688 15.25 32.3229 15.1562 32.1562 15.0938C31.9896 15.0312 31.8229 15 31.6562 15H18.3125C17.9583 15 17.6458 15.1354 17.375 15.4062C17.125 15.6562 17 15.9583 17 16.3125V40.3125C17 40.6875 17.125 41.0104 17.375 41.2812C17.6458 41.5312 17.9583 41.6562 18.3125 41.6562H37C37.3542 41.6562 37.6562 41.5312 37.9062 41.2812C38.1771 41.0104 38.3125 40.6875 38.3125 40.3125V21.6562C38.3125 21.4896 38.2812 21.3229 38.2188 21.1562C38.1562 20.9896 38.0625 20.8438 37.9375 20.7188ZM35.6562 39H19.6562V17.6562H30.3125V23H35.6562V39Z" fill="white"/>
</svg>
