<svg width="56" height="56" viewBox="0 0 56 56" fill="none" xmlns="http://www.w3.org/2000/svg">
<rect width="56" height="56" rx="28" fill="white" fill-opacity="0.16"/>
<path d="M35.6562 22H34.3125V19.3125C34.3125 17.8542 33.7917 16.6042 32.75 15.5625C31.7083 14.5208 30.4583 14 29 14H26.3125C24.8542 14 23.6042 14.5208 22.5625 15.5625C21.5208 16.6042 21 17.8542 21 19.3125V22H19.6562C18.9271 22 18.3021 22.2604 17.7812 22.7812C17.2604 23.3021 17 23.9271 17 24.6562V38C17 38.7292 17.2604 39.3542 17.7812 39.875C18.3021 40.3958 18.9271 40.6562 19.6562 40.6562H35.6562C36.3854 40.6562 37.0104 40.3958 37.5312 39.875C38.0521 39.3542 38.3125 38.7292 38.3125 38V24.6562C38.3125 23.9271 38.0521 23.3021 37.5312 22.7812C37.0104 22.2604 36.3854 22 35.6562 22ZM23.6562 19.3125C23.6562 18.5833 23.9167 17.9583 24.4375 17.4375C24.9583 16.9167 25.5833 16.6562 26.3125 16.6562H29C29.7292 16.6562 30.3542 16.9167 30.875 17.4375C31.3958 17.9583 31.6562 18.5833 31.6562 19.3125V22H23.6562V19.3125ZM19.6562 38V24.6562H35.6562V38H19.6562ZM26.3125 28.6562H29V34H26.3125V28.6562Z" fill="white"/>
</svg>
