<svg width="56" height="56" viewBox="0 0 56 56" fill="none" xmlns="http://www.w3.org/2000/svg">
<rect width="56" height="56" rx="28" fill="white" fill-opacity="0.16"/>
<path d="M28 13L16 18.3438V26.3438C16 28.1771 16.3021 29.9688 16.9062 31.7188C17.5104 33.4688 18.3438 35.0625 19.4062 36.5C20.4896 37.9167 21.7604 39.1458 23.2188 40.1875C24.6771 41.2083 26.2708 41.9271 28 42.3438C29.7292 41.9271 31.3229 41.2083 32.7812 40.1875C34.2396 39.1458 35.5 37.9167 36.5625 36.5C37.6458 35.0625 38.4896 33.4688 39.0938 31.7188C39.6979 29.9688 40 28.1771 40 26.3438V18.3438L28 13ZM37.3438 26.625C37.3438 28.0625 37.0833 29.4896 36.5625 30.9062C36.0625 32.3229 35.3854 33.625 34.5312 34.8125C33.6771 36 32.6875 37.0208 31.5625 37.875C30.4375 38.7292 29.25 39.3229 28 39.6562C26.75 39.3229 25.5625 38.7292 24.4375 37.875C23.3125 37.0208 22.3229 36 21.4688 34.8125C20.6146 33.625 19.9271 32.3229 19.4062 30.9062C18.9062 29.4896 18.6562 28.0625 18.6562 26.625V20.0625L28 15.9062L37.3438 20.0625V26.625ZM21.875 27.125L20 29L25.3438 34.3438L36 23.6562L34.125 21.7812L25.3438 30.5625L21.875 27.125Z" fill="white"/>
</svg>
