<svg width="56" height="56" viewBox="0 0 56 56" fill="none" xmlns="http://www.w3.org/2000/svg">
<rect width="56" height="56" rx="28" fill="white" fill-opacity="0.16"/>
<path d="M39.8438 20.1562H26.5L24.9062 18.0312C24.7812 17.8646 24.625 17.7396 24.4375 17.6562C24.25 17.5521 24.0521 17.5 23.8438 17.5H15.8438C15.4688 17.5 15.1458 17.6354 14.875 17.9062C14.625 18.1562 14.5 18.4688 14.5 18.8438V37.5C14.5 37.875 14.625 38.1979 14.875 38.4688C15.1458 38.7188 15.4688 38.8438 15.8438 38.8438H23.8438V36.1562H17.1875V20.1562H23.1875L24.7812 22.3125C24.9062 22.4792 25.0625 22.6146 25.25 22.7188C25.4375 22.8021 25.6354 22.8438 25.8438 22.8438H38.5V36.1562H31.8438V38.8438H39.8438C40.2188 38.8438 40.5312 38.7188 40.7812 38.4688C41.0521 38.1979 41.1875 37.875 41.1875 37.5V21.5C41.1875 21.125 41.0521 20.8125 40.7812 20.5625C40.5312 20.2917 40.2188 20.1562 39.8438 20.1562ZM29.1875 33.5V25.5H26.5V33.5H23.8438L27.8438 38.8438L31.8438 33.5H29.1875Z" fill="white"/>
</svg>
