<svg width="56" height="56" viewBox="0 0 56 56" fill="none" xmlns="http://www.w3.org/2000/svg">
<rect width="56" height="56" rx="28" fill="white" fill-opacity="0.16"/>
<path d="M37.5 14H18.8125C18.4583 14 18.1458 14.1354 17.875 14.4062C17.625 14.6562 17.5 14.9688 17.5 15.3438V42C17.5 42.375 17.625 42.6875 17.875 42.9375C18.1458 43.2083 18.4583 43.3438 18.8125 43.3438H37.5C37.8542 43.3438 38.1562 43.2083 38.4062 42.9375C38.6771 42.6875 38.8125 42.375 38.8125 42V15.3438C38.8125 14.9688 38.6771 14.6562 38.4062 14.4062C38.1562 14.1354 37.8542 14 37.5 14ZM30.8438 40.6562H25.5V39.3438H30.8438V40.6562ZM36.1562 36.6562H20.1562V18H36.1562V36.6562Z" fill="white"/>
</svg>
