<svg width="24" height="24" viewBox="0 0 24 24" fill="none" xmlns="http://www.w3.org/2000/svg">
<path d="M16.8672 21.9922C16.6953 21.9922 16.5234 21.9688 16.3516 21.9219C16.1953 21.875 16.0469 21.8047 15.9062 21.7109L11.5 19.0391L7.09375 21.7344C6.78125 21.9062 6.4375 21.9922 6.0625 21.9922C5.70312 21.9766 5.375 21.8672 5.07812 21.6641C4.78125 21.4609 4.5625 21.1953 4.42188 20.8672C4.29688 20.5234 4.27344 20.1719 4.35156 19.8125L5.38281 14.7031L1.60938 11.4219C1.34375 11.2031 1.16406 10.9219 1.07031 10.5781C0.976562 10.2344 0.976562 9.89062 1.07031 9.54688C1.17969 9.21875 1.36719 8.9375 1.63281 8.70312C1.89844 8.46875 2.20312 8.32812 2.54688 8.28125L7.77344 7.48438L9.83594 3.05469C9.99219 2.72656 10.2188 2.46875 10.5156 2.28125C10.8125 2.09375 11.1406 2 11.5 2C11.8594 2 12.1875 2.09375 12.4844 2.28125C12.7812 2.46875 13.0078 2.72656 13.1641 3.05469L15.2266 7.48438L20.4531 8.28125C20.7969 8.32812 21.1016 8.46875 21.3672 8.70312C21.6328 8.9375 21.8203 9.21875 21.9297 9.54688C22.0234 9.89062 22.0234 10.2344 21.9297 10.5781C21.8359 10.9219 21.6484 11.2031 21.3672 11.4219L17.6406 14.7031L18.6719 19.8125C18.7344 20.1719 18.6953 20.5234 18.5547 20.8672C18.4297 21.1953 18.2109 21.4609 17.8984 21.6641C17.7578 21.7734 17.5938 21.8594 17.4062 21.9219C17.2344 21.9688 17.0547 21.9922 16.8672 21.9922Z" fill="#FFB13B"/>
</svg>
