<svg width="24" height="24" viewBox="0 0 24 24" fill="none" xmlns="http://www.w3.org/2000/svg">
<path d="M7.49997 17.32C7.27618 17.3179 7.0606 17.4041 6.9 17.56C6.82191 17.6389 6.76043 17.7326 6.71921 17.8357C6.67799 17.9388 6.65786 18.049 6.66001 18.16C6.65806 18.2695 6.67833 18.3782 6.71958 18.4796C6.76083 18.581 6.8222 18.673 6.9 18.75C6.97769 18.8304 7.07099 18.894 7.17417 18.937C7.27735 18.98 7.3882 19.0014 7.49997 19H18.32V20.66H7.49997C7.17105 20.6634 6.84484 20.6005 6.54074 20.4751C6.23665 20.3496 5.96093 20.1643 5.73001 19.93C5.49386 19.7005 5.30723 19.425 5.18167 19.1206C5.05612 18.8162 4.99427 18.4893 4.99997 18.16V4H18.32V17.32H7.49997ZM6.70999 5.66V15.66H16.71V5.66H6.70999Z" fill="#333333"/>
<path d="M12.69 9.22H12.71V14.83H11.05V9.83H10.21V8.99H12.69V9.22Z" fill="#333333"/>
<path d="M12.71 7.32999C12.7128 7.21893 12.6929 7.10847 12.6517 7.00532C12.6104 6.90216 12.5486 6.80848 12.4701 6.72993C12.3915 6.65137 12.2979 6.58959 12.1947 6.54835C12.0915 6.5071 11.9811 6.48725 11.87 6.49C11.6472 6.49 11.4336 6.5785 11.2761 6.73603C11.1185 6.89356 11.03 7.10721 11.03 7.32999C11.0285 7.43736 11.0499 7.54382 11.0931 7.64216C11.1362 7.74049 11.2 7.82842 11.28 7.9C11.3551 7.98107 11.4464 8.04529 11.5482 8.08838C11.6499 8.13148 11.7596 8.15248 11.87 8.15C11.9819 8.15264 12.0932 8.13175 12.1965 8.08869C12.2999 8.04563 12.3931 7.98134 12.47 7.9C12.5468 7.82637 12.6076 7.73783 12.6489 7.63981C12.6902 7.54178 12.711 7.43635 12.71 7.32999Z" fill="#333333"/>
</svg>
