<svg width="24" height="24" viewBox="0 0 24 24" fill="none" xmlns="http://www.w3.org/2000/svg">
<path d="M13.7174 11.2427C13.7174 11.5936 13.5981 11.8908 13.3594 12.1345C13.1207 12.3782 12.8342 12.5 12.5 12.5C12.1658 12.5 11.8793 12.3782 11.6406 12.1345C11.4019 11.8908 11.2826 11.5936 11.2826 11.2427C11.2826 10.9016 11.4019 10.6092 11.6406 10.3655C11.8793 10.1218 12.1658 10 12.5 10C12.8342 10 13.1207 10.1218 13.3594 10.3655C13.5981 10.6092 13.7174 10.9016 13.7174 11.2427ZM18 11.2427C18 11.5936 17.8806 11.8908 17.6419 12.1345C17.4032 12.3782 17.1168 12.5 16.7826 12.5C16.4388 12.5 16.1476 12.3782 15.9089 12.1345C15.6701 11.8908 15.5508 11.5936 15.5508 11.2427C15.5508 10.9016 15.6701 10.6092 15.9089 10.3655C16.1476 10.1218 16.4388 10 16.7826 10C17.1168 10 17.4032 10.1218 17.6419 10.3655C17.8806 10.6092 18 10.9016 18 11.2427ZM9.44922 11.2427C9.44922 11.5936 9.32986 11.8908 9.09115 12.1345C8.85243 12.3782 8.5612 12.5 8.21745 12.5C7.88325 12.5 7.59679 12.3782 7.35807 12.1345C7.11936 11.8908 7 11.5936 7 11.2427C7 10.9016 7.11936 10.6092 7.35807 10.3655C7.59679 10.1218 7.88325 10 8.21745 10C8.5612 10 8.85243 10.1218 9.09115 10.3655C9.32986 10.6092 9.44922 10.9016 9.44922 11.2427Z" fill="#333333"/>
<path d="M12.5 3C11.3322 3 10.2307 3.22587 9.19555 3.67761C8.16042 4.11606 7.258 4.72059 6.48829 5.49121C5.71858 6.26182 5.10812 7.1653 4.65691 8.20164C4.21897 9.2247 4 10.3208 4 11.49C4 12.6725 4.21897 13.7819 4.65691 14.8183C5.10812 15.8413 5.71858 16.7382 6.48829 17.5088C7.258 18.2794 8.16042 18.8906 9.19555 19.3423C10.2307 19.7808 11.3322 20 12.5 20C13.6678 20 14.7693 19.7808 15.8045 19.3423C16.8396 18.8906 17.742 18.2794 18.5117 17.5088C19.2814 16.7382 19.8852 15.8413 20.3232 14.8183C20.7744 13.7819 21 12.6725 21 11.49C21 10.3208 20.7744 9.2247 20.3232 8.20164C19.8852 7.1653 19.2814 6.26182 18.5117 5.49121C17.742 4.72059 16.8396 4.11606 15.8045 3.67761C14.7693 3.22587 13.6678 3 12.5 3ZM12.5 18.306C11.5578 18.306 10.6753 18.1266 9.85246 17.7679C9.02966 17.4091 8.3064 16.9242 7.68267 16.313C7.07221 15.6886 6.58782 14.9644 6.22951 14.1407C5.88447 13.3169 5.71194 12.4334 5.71194 11.49C5.71194 10.56 5.88447 9.68308 6.22951 8.85932C6.58782 8.02227 7.07221 7.29816 7.68267 6.68699C8.3064 6.07581 9.02966 5.59086 9.85246 5.23212C10.6753 4.87339 11.5578 4.69402 12.5 4.69402C13.4422 4.69402 14.3247 4.87339 15.1475 5.23212C15.9703 5.59086 16.687 6.07581 17.2974 6.68699C17.9212 7.29816 18.4055 8.02227 18.7506 8.85932C19.1089 9.68308 19.2881 10.56 19.2881 11.49C19.2881 12.4334 19.1089 13.3169 18.7506 14.1407C18.4055 14.9644 17.9212 15.6886 17.2974 16.313C16.687 16.9242 15.9703 17.4091 15.1475 17.7679C14.3247 18.1266 13.4422 18.306 12.5 18.306Z" fill="#333333"/>
</svg>
