<?xml version="1.0" encoding="utf-8"?>
<!-- Generator: Adobe Illustrator 25.0.1, SVG Export Plug-In . SVG Version: 6.00 Build 0)  -->
<svg version="1.1" id="레이어_1" xmlns="http://www.w3.org/2000/svg" xmlns:xlink="http://www.w3.org/1999/xlink" x="0px"
	 y="0px" viewBox="0 0 32 32" style="enable-background:new 0 0 32 32;" xml:space="preserve">
<style type="text/css">
	.st0{clip-path:url(#SVGID_2_);}
	.st1{fill:#D4859E;}
</style>
<g>
	<defs>
		<rect id="SVGID_1_" x="6.6" y="2.6" width="18.7" height="26.7"/>
	</defs>
	<clipPath id="SVGID_2_">
		<use xlink:href="#SVGID_1_"  style="overflow:visible;"/>
	</clipPath>
	<g class="st0">
		<path class="st1" d="M15.9,2.6c1.3,0,2.5,0.2,3.6,0.7s2.1,1.2,3,2s1.5,1.8,2,3c0.5,1.1,0.7,2.3,0.7,3.6c0,1.8-0.5,3.6-1.5,5.7
			c-1,2-2.1,3.9-3.2,5.6c-1.2,1.7-2.7,3.7-4.7,6c-1.9-2.3-3.5-4.3-4.7-6c-1-1.7-2.1-3.6-3-5.6c-1-2-1.5-3.9-1.5-5.7
			c0-1.3,0.2-2.5,0.7-3.6s1.2-2.1,2-3s1.8-1.5,3-2C13.4,2.8,14.8,2.6,15.9,2.6z M18.9,14.8c0.8-0.8,1.2-1.7,1.2-2.8s-0.4-2-1.2-2.8
			C18,8.3,17.1,7.9,16,7.9s-2,0.4-2.8,1.2c-0.8,0.8-1.3,1.7-1.3,2.8s0.4,2,1.2,2.8c0.8,0.8,1.7,1.2,2.8,1.2S18,15.5,18.9,14.8z"/>
	</g>
</g>
</svg>
