<svg width="24" height="24" viewBox="0 0 24 24" fill="none" xmlns="http://www.w3.org/2000/svg">
<path d="M19.0156 8.00781C19.0156 8.27344 18.9141 8.50781 18.7109 8.71094C18.5234 8.89844 18.2891 8.99219 18.0078 8.99219C17.7266 8.99219 17.4844 8.89844 17.2812 8.71094C17.0938 8.50781 17 8.27344 17 8.00781C17 7.72656 17.0938 7.49219 17.2812 7.30469C17.4844 7.10156 17.7266 7 18.0078 7C18.2891 7 18.5234 7.10156 18.7109 7.30469C18.9141 7.49219 19.0156 7.72656 19.0156 8.00781ZM16.0156 8.00781C16.0156 8.27344 15.9141 8.50781 15.7109 8.71094C15.5234 8.89844 15.2891 8.99219 15.0078 8.99219C14.7266 8.99219 14.4844 8.89844 14.2812 8.71094C14.0938 8.50781 14 8.27344 14 8.00781C14 7.72656 14.0938 7.49219 14.2812 7.30469C14.4844 7.10156 14.7266 7 15.0078 7C15.2891 7 15.5234 7.10156 15.7109 7.30469C15.9141 7.49219 16.0156 7.72656 16.0156 8.00781ZM13.0156 8.00781C13.0156 8.27344 12.9141 8.50781 12.7109 8.71094C12.5234 8.89844 12.2891 8.99219 12.0078 8.99219C11.7266 8.99219 11.4844 8.89844 11.2812 8.71094C11.0938 8.50781 11 8.27344 11 8.00781C11 7.72656 11.0938 7.49219 11.2812 7.30469C11.4844 7.10156 11.7266 7 12.0078 7C12.2891 7 12.5234 7.10156 12.7109 7.30469C12.9141 7.49219 13.0156 7.72656 13.0156 8.00781ZM21.0078 4H3.00781C2.72656 4 2.48438 4.10156 2.28125 4.30469C2.09375 4.49219 2 4.72656 2 5.00781V20.0078C2 20.2734 2.09375 20.5078 2.28125 20.7109C2.48438 20.8984 2.72656 20.9922 3.00781 20.9922H21.0078C21.2891 20.9922 21.5234 20.8984 21.7109 20.7109C21.9141 20.5078 22.0156 20.2734 22.0156 20.0078V5.00781C22.0156 4.72656 21.9141 4.49219 21.7109 4.30469C21.5234 4.10156 21.2891 4 21.0078 4ZM20 19H4.01562V5.99219H20V19ZM5.98438 14.9922H18.0078V17.0078H5.98438V14.9922ZM5.98438 11.9922H18.0078V14.0078H5.98438V11.9922Z" fill="#333333"/>
</svg>
