<?xml version="1.0" encoding="utf-8"?>
<!-- Generator: Adobe Illustrator 25.0.1, SVG Export Plug-In . SVG Version: 6.00 Build 0)  -->
<svg version="1.1" id="레이어_1" xmlns="http://www.w3.org/2000/svg" xmlns:xlink="http://www.w3.org/1999/xlink" x="0px"
	 y="0px" viewBox="0 0 32 32" style="enable-background:new 0 0 32 32;" xml:space="preserve">
<style type="text/css">
	.st0{clip-path:url(#SVGID_2_);}
	.st1{fill:#AA1239;}
</style>
<g>
	<defs>
		<rect id="SVGID_1_" x="1.4" y="2" width="29.3" height="28"/>
	</defs>
	<clipPath id="SVGID_2_">
		<use xlink:href="#SVGID_1_"  style="overflow:visible;"/>
	</clipPath>
	<g class="st0">
		<path class="st1" d="M30.6,7.3h-2.6V2h-2.7v5.3h-2.7l4,5.4L30.6,7.3z"/>
		<path class="st1" d="M28.1,13.9v6.8h-24V6h19.3V3.3H2.7c-0.3,0-0.6,0.2-0.9,0.4C1.5,4,1.4,4.3,1.4,4.7v18.7c0,0.4,0.1,0.7,0.4,0.9
			c0.3,0.3,0.6,0.4,0.9,0.4h10.7l-2.7,4V30h10.7v-1.3l-2.7-4h10.7c0.4,0,0.7-0.1,0.9-0.4c0.3-0.3,0.4-0.6,0.4-0.9v-13L28.1,13.9z"/>
	</g>
</g>
</svg>
