<svg width="24" height="24" viewBox="0 0 24 24" fill="none" xmlns="http://www.w3.org/2000/svg">
<path d="M18.8359 13.2031C18.8516 13.1406 18.8594 13.0781 18.8594 13.0156C18.875 12.9531 18.8828 12.8906 18.8828 12.8281L18.9062 12.7812C18.9062 12.7656 18.9062 12.75 18.9062 12.7344C18.9062 12.7188 18.9062 12.7031 18.9062 12.6875C18.9219 12.5625 18.9297 12.4453 18.9297 12.3359C18.9297 12.2266 18.9297 12.1094 18.9297 11.9844C18.9297 11.875 18.9297 11.7656 18.9297 11.6562C18.9297 11.5312 18.9219 11.4141 18.9062 11.3047C18.9062 11.2891 18.9062 11.2734 18.9062 11.2578C18.9062 11.2422 18.9062 11.2266 18.9062 11.2109L18.8828 11.1641C18.8828 11.1016 18.875 11.0391 18.8594 10.9766C18.8594 10.8984 18.8516 10.8281 18.8359 10.7656L20.8984 9.10156C20.9453 9.05469 20.9766 9.00781 20.9922 8.96094C21.0078 8.89844 21 8.84375 20.9688 8.79688L18.9766 5.21094C18.9453 5.16406 18.8984 5.13281 18.8359 5.11719C18.7891 5.08594 18.7344 5.08594 18.6719 5.11719L16.2109 6.10156C16.1953 6.10156 16.1797 6.09375 16.1641 6.07812C16.1484 6.0625 16.1328 6.05469 16.1172 6.05469L15.9531 5.91406C15.9375 5.89844 15.9141 5.88281 15.8828 5.86719C15.8516 5.83594 15.8203 5.80469 15.7891 5.77344C15.7734 5.77344 15.7578 5.76562 15.7422 5.75C15.7266 5.73438 15.7109 5.72656 15.6953 5.72656L15.6484 5.67969C15.3984 5.52344 15.1484 5.375 14.8984 5.23438C14.6484 5.09375 14.3906 4.97656 14.125 4.88281L13.75 2.21094C13.75 2.14844 13.7266 2.10156 13.6797 2.07031C13.6328 2.02344 13.5781 2 13.5156 2H9.48438C9.42188 2 9.36719 2.02344 9.32031 2.07031C9.27344 2.10156 9.25 2.14844 9.25 2.21094L8.875 4.88281C8.60938 4.97656 8.35156 5.09375 8.10156 5.23438C7.85156 5.375 7.60156 5.52344 7.35156 5.67969L7.30469 5.72656C7.28906 5.72656 7.27344 5.73438 7.25781 5.75C7.24219 5.76562 7.22656 5.77344 7.21094 5.77344C7.17969 5.80469 7.14844 5.82812 7.11719 5.84375C7.10156 5.85938 7.07812 5.88281 7.04688 5.91406L6.88281 6.05469C6.86719 6.05469 6.85156 6.0625 6.83594 6.07812C6.82031 6.09375 6.80469 6.10156 6.78906 6.10156L4.32812 5.11719C4.26562 5.08594 4.20312 5.08594 4.14062 5.11719C4.09375 5.13281 4.05469 5.17188 4.02344 5.23438L2.03125 8.79688C2 8.84375 1.99219 8.89844 2.00781 8.96094C2.02344 9.00781 2.05469 9.05469 2.10156 9.10156L4.16406 10.7656C4.14844 10.8281 4.13281 10.8906 4.11719 10.9531C4.11719 11.0156 4.11719 11.0781 4.11719 11.1406V11.2109C4.10156 11.2266 4.09375 11.2422 4.09375 11.2578C4.09375 11.2734 4.09375 11.2891 4.09375 11.3047C4.07812 11.4141 4.07031 11.5312 4.07031 11.6562C4.07031 11.7656 4.07031 11.875 4.07031 11.9844C4.07031 12.1094 4.07031 12.2266 4.07031 12.3359C4.07031 12.4453 4.07812 12.5625 4.09375 12.6875C4.09375 12.7031 4.09375 12.7188 4.09375 12.7344C4.09375 12.75 4.10156 12.7656 4.11719 12.7812V12.8281C4.11719 12.8906 4.11719 12.9531 4.11719 13.0156C4.13281 13.0781 4.14844 13.1406 4.16406 13.2031L2.10156 14.8906C2.05469 14.9219 2.02344 14.9688 2.00781 15.0312C1.99219 15.0938 2 15.1484 2.03125 15.1953L4.02344 18.7578C4.05469 18.8203 4.09375 18.8594 4.14062 18.875C4.20312 18.8906 4.26562 18.8906 4.32812 18.875L6.78906 17.8672C6.80469 17.8828 6.82031 17.8984 6.83594 17.9141C6.85156 17.9141 6.85938 17.9219 6.85938 17.9375L7.04688 18.0781C7.0625 18.0938 7.08594 18.1172 7.11719 18.1484C7.14844 18.1641 7.17969 18.1797 7.21094 18.1953C7.22656 18.2109 7.23438 18.2266 7.23438 18.2422C7.25 18.2422 7.26562 18.25 7.28125 18.2656L7.32812 18.2891C7.57812 18.4609 7.82812 18.6172 8.07812 18.7578C8.34375 18.8828 8.60938 19 8.875 19.1094L9.25 21.7812C9.25 21.8438 9.27344 21.8984 9.32031 21.9453C9.36719 21.9766 9.42188 21.9922 9.48438 21.9922H13.5156C13.5781 21.9922 13.6328 21.9766 13.6797 21.9453C13.7266 21.8984 13.75 21.8438 13.75 21.7812L14.125 19.1094C14.3906 19 14.6484 18.8828 14.8984 18.7578C15.1641 18.6172 15.4219 18.4609 15.6719 18.2891L15.7188 18.2656C15.7344 18.25 15.7422 18.2422 15.7422 18.2422C15.7578 18.2266 15.7734 18.2109 15.7891 18.1953C15.8203 18.1797 15.8516 18.1641 15.8828 18.1484C15.9141 18.1172 15.9453 18.0938 15.9766 18.0781L16.1406 17.9375C16.1406 17.9219 16.1484 17.9141 16.1641 17.9141C16.1797 17.8984 16.1953 17.8828 16.2109 17.8672L18.6719 18.875C18.7344 18.8906 18.7891 18.8906 18.8359 18.875C18.8984 18.8594 18.9453 18.8203 18.9766 18.7578L20.9688 15.1953C21 15.1484 21.0078 15.0938 20.9922 15.0312C20.9766 14.9688 20.9453 14.9219 20.8984 14.8906L18.8359 13.2031ZM15.0156 11.9844C15.0156 12.9531 14.6719 13.7812 13.9844 14.4688C13.2969 15.1562 12.4688 15.5 11.5 15.5C10.5312 15.5 9.70312 15.1562 9.01562 14.4688C8.34375 13.7812 8.00781 12.9531 8.00781 11.9844C8.00781 11.0312 8.34375 10.2109 9.01562 9.52344C9.70312 8.83594 10.5312 8.49219 11.5 8.49219C12.4688 8.49219 13.2969 8.83594 13.9844 9.52344C14.6719 10.2109 15.0156 11.0312 15.0156 11.9844Z" fill="#333333"/>
</svg>
