<svg width="24" height="24" viewBox="0 0 24 24" fill="none" xmlns="http://www.w3.org/2000/svg">
<path d="M13.0078 3H3V21H9V17.0156H10.9922V21H21V3H13.0078ZM7.00781 19.0078H4.99219V17.0156H7.00781V19.0078ZM7.00781 15H4.99219V13.0078H7.00781V15ZM7.00781 11.0156H4.99219V9H7.00781V11.0156ZM7.00781 7.00781H4.99219V5.01562H7.00781V7.00781ZM10.9922 15H9V13.0078H10.9922V15ZM10.9922 11.0156H9V9H10.9922V11.0156ZM10.9922 7.00781H9V5.01562H10.9922V7.00781ZM15 19.0078H13.0078V17.0156H15V19.0078ZM15 15H13.0078V13.0078H15V15ZM15 11.0156H13.0078V9H15V11.0156ZM15 7.00781H13.0078V5.01562H15V7.00781ZM19.0078 19.0078H16.9922V17.0156H19.0078V19.0078ZM19.0078 15H16.9922V13.0078H19.0078V15ZM19.0078 11.0156H16.9922V9H19.0078V11.0156ZM19.0078 7.00781H16.9922V5.01562H19.0078V7.00781Z" fill="white"/>
</svg>
