<svg width="24" height="24" viewBox="0 0 24 24" fill="none" xmlns="http://www.w3.org/2000/svg">
<path d="M19 3H4.98438C4.71875 3 4.48438 3.10156 4.28125 3.30469C4.09375 3.49219 4 3.72656 4 4.00781V20.0156C4 20.2812 4.09375 20.5156 4.28125 20.7188C4.48438 20.9062 4.71875 21 4.98438 21H19C19.2656 21 19.4922 20.9062 19.6797 20.7188C19.8828 20.5156 19.9844 20.2812 19.9844 20.0156V4.00781C19.9844 3.72656 19.8828 3.49219 19.6797 3.30469C19.4922 3.10156 19.2656 3 19 3ZM17.9922 19.0078H5.99219V5.01562H17.9922V19.0078ZM7 7.00781H16.9844V9H7V7.00781ZM7 11.0156H16.9844V13.0078H7V11.0156ZM7 15H13.9844V17.0156H7V15Z" fill="#333333"/>
</svg>
