<svg width="24" height="24" viewBox="0 0 24 24" fill="none" xmlns="http://www.w3.org/2000/svg">
<path d="M16.2227 20.6602C16.0794 20.6602 15.9362 20.6406 15.793 20.6016C15.6628 20.5625 15.5391 20.5039 15.4219 20.4258L11.75 18.1992L8.07812 20.4453C7.81771 20.5885 7.53125 20.6602 7.21875 20.6602C6.91927 20.6471 6.64583 20.556 6.39844 20.3867C6.15104 20.2174 5.96875 19.9961 5.85156 19.7227C5.7474 19.4362 5.72786 19.1432 5.79297 18.8438L6.65234 14.5859L3.50781 11.8516C3.28646 11.6693 3.13672 11.4349 3.05859 11.1484C2.98047 10.862 2.98047 10.5755 3.05859 10.2891C3.14974 10.0156 3.30599 9.78125 3.52734 9.58594C3.7487 9.39062 4.0026 9.27344 4.28906 9.23438L8.64453 8.57031L10.3633 4.87891C10.4935 4.60547 10.6823 4.39062 10.9297 4.23438C11.1771 4.07812 11.4505 4 11.75 4C12.0495 4 12.3229 4.07812 12.5703 4.23438C12.8177 4.39062 13.0065 4.60547 13.1367 4.87891L14.8555 8.57031L19.2109 9.23438C19.4974 9.27344 19.7513 9.39062 19.9727 9.58594C20.194 9.78125 20.3503 10.0156 20.4414 10.2891C20.5195 10.5755 20.5195 10.862 20.4414 11.1484C20.3633 11.4349 20.207 11.6693 19.9727 11.8516L16.8672 14.5859L17.7266 18.8438C17.7786 19.1432 17.7461 19.4362 17.6289 19.7227C17.5247 19.9961 17.3424 20.2174 17.082 20.3867C16.9648 20.4779 16.8281 20.5495 16.6719 20.6016C16.5286 20.6406 16.3789 20.6602 16.2227 20.6602Z" fill="#333333"/>
</svg>
