<?xml version="1.0" encoding="utf-8"?>
<!-- Generator: Adobe Illustrator 25.0.1, SVG Export Plug-In . SVG Version: 6.00 Build 0)  -->
<svg version="1.1" id="레이어_1" xmlns="http://www.w3.org/2000/svg" xmlns:xlink="http://www.w3.org/1999/xlink" x="0px"
	 y="0px" viewBox="0 0 270 76" style="enable-background:new 0 0 270 76;" xml:space="preserve">
<style type="text/css">
	.st0{fill:#A50034;}
	.st1{fill:#232D42;}
</style>
<g>
	<path class="st0" d="M23.7,40.8l17-17c0.8-0.8,2-0.8,2.8,0l0,0c0.8,0.8,0.8,2,0,2.8l-17,17c-0.8,0.8-2,0.8-2.8,0l0,0
		C22.9,42.9,22.9,41.6,23.7,40.8z"/>
	<path class="st0" d="M32.2,49.3l17-17c0.8-0.8,2-0.8,2.8,0l0,0c0.8,0.8,0.8,2,0,2.8l-17,17c-0.8,0.8-2,0.8-2.8,0l0,0
		C31.4,51.4,31.4,50.1,32.2,49.3z"/>
	<path class="st0" d="M35,40.8l8.5,8.5c0.8,0.8,0.8,2,0,2.8l0,0c-0.8,0.8-2,0.8-2.8,0l-8.5-8.5c-0.8-0.8-0.8-2,0-2.8l0,0
		C33,40,34.2,40,35,40.8z"/>
	<path class="st0" d="M35,23.9l17,17c0.8,0.8,0.8,2,0,2.8l0,0c-0.8,0.8-2,0.8-2.8,0l-17-17c-0.8-0.8-0.8-2,0-2.8l0,0
		C33,23.1,34.3,23.1,35,23.9z"/>
	<path class="st0" d="M73.3,33.4c0-0.9-0.2-1.5-0.8-2c-0.5-0.5-1.3-0.7-2.3-0.7c-0.7,0-1.3,0.1-1.9,0.3c-0.5,0.2-1,0.5-1.3,0.9
		s-0.5,0.8-0.6,1.3c-0.1,0.4,0,0.7,0.1,1s0.3,0.5,0.6,0.7c0.3,0.2,0.6,0.4,1,0.5s0.7,0.2,1.1,0.3l1.7,0.4c0.7,0.2,1.3,0.4,1.9,0.7
		s1.1,0.6,1.6,1.1c0.5,0.4,0.8,1,1,1.6s0.2,1.3,0.1,2.1c-0.2,1.1-0.6,2.1-1.3,2.9c-0.7,0.8-1.6,1.5-2.8,2c-1.1,0.5-2.5,0.7-4,0.7
		s-2.7-0.2-3.7-0.7c-1-0.5-1.7-1.1-2.2-2s-0.6-1.9-0.4-3.2h3.4c-0.1,0.7,0,1.2,0.3,1.6c0.3,0.4,0.7,0.8,1.2,1s1.2,0.3,1.9,0.3
		c0.7,0,1.4-0.1,2-0.3s1.1-0.5,1.5-0.9s0.6-0.9,0.7-1.4s0-0.9-0.2-1.2s-0.6-0.6-1.1-0.8s-1-0.4-1.7-0.6l-2-0.6
		c-1.5-0.4-2.6-1-3.4-1.8c-0.8-0.8-1-1.9-0.8-3.2c0.2-1.1,0.6-2.1,1.4-2.9c0.7-0.8,1.7-1.5,2.8-1.9c1.1-0.5,2.3-0.7,3.7-0.7
		c1.3,0,2.5,0.2,3.4,0.7s1.6,1.1,2,2c0.4,0.8,0.6,1.8,0.4,2.9L73.3,33.4L73.3,33.4z M83.7,47.3c-1.4,0-2.6-0.3-3.5-0.9
		c-0.9-0.6-1.6-1.4-2-2.5S77.8,41.5,78,40c0.2-1.5,0.7-2.7,1.5-3.8c0.7-1.1,1.7-2,2.8-2.6c1.1-0.6,2.3-0.9,3.7-0.9
		c0.9,0,1.7,0.1,2.4,0.4c0.7,0.3,1.4,0.7,1.9,1.3s0.9,1.3,1,2.2c0.2,0.9,0.2,2,0,3.2l-0.2,1H79.5l0.4-2.3h8.4
		c0.1-0.6,0.1-1.2-0.1-1.7s-0.5-0.9-0.9-1.2s-1-0.4-1.6-0.4c-0.7,0-1.3,0.2-1.8,0.5c-0.6,0.3-1,0.8-1.4,1.3s-0.6,1.1-0.7,1.7
		l-0.4,2.2c-0.1,0.9-0.1,1.6,0.1,2.2c0.2,0.6,0.5,1,1,1.2c0.5,0.3,1.1,0.4,1.9,0.4c0.5,0,0.9-0.1,1.4-0.2c0.4-0.1,0.8-0.3,1.1-0.6
		c0.3-0.3,0.6-0.6,0.8-1l3.1,0.4c-0.3,0.8-0.8,1.5-1.5,2.2c-0.7,0.6-1.4,1.1-2.3,1.4C85.8,47.1,84.8,47.3,83.7,47.3z M99.1,47.3
		c-1.4,0-2.6-0.3-3.5-0.9c-0.9-0.6-1.5-1.5-1.9-2.6s-0.4-2.4-0.2-3.8c0.2-1.4,0.7-2.7,1.4-3.8c0.7-1.1,1.7-2,2.8-2.6
		c1.1-0.6,2.4-0.9,3.8-0.9c1.2,0,2.1,0.2,2.9,0.6c0.8,0.4,1.4,1,1.8,1.8s0.6,1.7,0.5,2.7h-3.2c0-0.7-0.2-1.3-0.6-1.7
		c-0.4-0.5-1-0.7-1.8-0.7c-0.7,0-1.3,0.2-1.9,0.6c-0.6,0.4-1.1,0.9-1.5,1.6c-0.4,0.7-0.7,1.5-0.8,2.5c-0.2,1-0.2,1.8,0,2.5
		s0.5,1.2,0.9,1.6c0.5,0.4,1,0.6,1.7,0.6c0.5,0,1-0.1,1.4-0.3s0.8-0.5,1.1-0.8c0.3-0.4,0.6-0.8,0.8-1.3h3.2c-0.3,1-0.7,1.9-1.3,2.7
		c-0.6,0.8-1.4,1.4-2.4,1.8C101.3,47.1,100.3,47.3,99.1,47.3z M118,41l1.4-8.2h3.3L120.3,47h-3.2l0.4-2.5h-0.1
		c-0.4,0.8-1.1,1.4-1.9,1.9s-1.8,0.8-2.8,0.8c-0.9,0-1.7-0.2-2.4-0.6c-0.6-0.4-1.1-1-1.4-1.8s-0.3-1.8-0.1-2.9l1.5-9h3.3l-1.4,8.5
		c-0.1,0.9,0,1.6,0.4,2.1s1,0.8,1.8,0.8c0.5,0,1-0.1,1.5-0.4c0.5-0.2,0.9-0.6,1.3-1.1C117.6,42.4,117.8,41.8,118,41z M123.7,47
		l2.4-14.2h3.2l-0.4,2.4h0.1c0.4-0.8,0.9-1.4,1.6-1.9c0.7-0.4,1.5-0.7,2.3-0.7c0.2,0,0.4,0,0.6,0c0.2,0,0.4,0,0.6,0.1l-0.5,3.1
		c-0.1,0-0.4-0.1-0.7-0.1s-0.6-0.1-0.9-0.1c-0.6,0-1.2,0.1-1.7,0.4c-0.5,0.3-1,0.6-1.3,1.1c-0.4,0.5-0.6,1-0.7,1.6l-1.4,8.3
		C126.9,47,123.7,47,123.7,47z M134.1,47l2.4-14.2h3.3L137.4,47H134.1z M138.6,30.8c-0.5,0-1-0.2-1.3-0.5c-0.4-0.4-0.5-0.8-0.5-1.3
		s0.3-0.9,0.7-1.3s0.9-0.5,1.4-0.5s1,0.2,1.3,0.5c0.4,0.4,0.5,0.8,0.5,1.3s-0.3,0.9-0.7,1.3C139.6,30.6,139.1,30.8,138.6,30.8z
		 M150.3,32.8l-0.4,2.6h-8.1l0.4-2.6H150.3z M144.7,29.4h3.3l-2.2,13.3c-0.1,0.4-0.1,0.8,0,1s0.3,0.4,0.5,0.5s0.5,0.1,0.7,0.1
		s0.4,0,0.6,0c0.2,0,0.3-0.1,0.4-0.1l0.1,2.6c-0.2,0.1-0.5,0.1-0.8,0.2c-0.3,0.1-0.7,0.1-1.2,0.1c-0.8,0-1.6-0.1-2.2-0.4
		c-0.6-0.3-1.1-0.7-1.4-1.3c-0.3-0.6-0.3-1.3-0.2-2.2L144.7,29.4z M151.9,52.3c-0.5,0-0.9,0-1.2-0.1c-0.4-0.1-0.7-0.1-0.9-0.2
		l1.2-2.6c0.5,0.1,0.9,0.2,1.2,0.2c0.4,0,0.7-0.1,1-0.4c0.3-0.2,0.6-0.6,0.9-1.2l0.4-0.8L152,32.8h3.4l1.5,10.7h0.1l5.1-10.7h3.7
		l-8.3,15.9c-0.4,0.8-0.9,1.4-1.4,2c-0.5,0.5-1.1,1-1.8,1.2C153.6,52.2,152.8,52.3,151.9,52.3z"/>
	<path class="st1" d="M172.3,47l3.1-18.9h7.1c1.5,0,2.6,0.3,3.5,0.8s1.5,1.3,1.9,2.2c0.4,0.9,0.4,2,0.2,3.2s-0.6,2.3-1.3,3.2
		s-1.5,1.7-2.6,2.2s-2.4,0.8-3.8,0.8h-4.7l0.5-2.8h4.2c0.8,0,1.6-0.1,2.2-0.4c0.6-0.3,1.1-0.7,1.4-1.2c0.3-0.5,0.6-1.1,0.7-1.8
		c0.1-0.7,0.1-1.3-0.1-1.8c-0.2-0.5-0.5-0.9-1-1.2c-0.5-0.3-1.2-0.4-2-0.4h-3.1l-2.7,16L172.3,47L172.3,47z M194.9,47.3
		c-1.4,0-2.6-0.3-3.5-0.9c-0.9-0.6-1.6-1.5-1.9-2.6c-0.4-1.1-0.4-2.4-0.2-3.9s0.7-2.7,1.4-3.8s1.6-1.9,2.7-2.5
		c1.1-0.6,2.3-0.9,3.7-0.9s2.6,0.3,3.5,0.9c0.9,0.6,1.6,1.5,1.9,2.6c0.4,1.1,0.5,2.4,0.2,3.9c-0.2,1.4-0.7,2.7-1.4,3.8
		s-1.6,1.9-2.7,2.5C197.5,47,196.3,47.3,194.9,47.3z M195.2,44.6c0.8,0,1.5-0.2,2-0.6c0.6-0.4,1.1-1,1.4-1.7
		c0.4-0.7,0.6-1.5,0.8-2.4c0.1-0.8,0.1-1.6,0-2.3s-0.4-1.2-0.8-1.7c-0.4-0.4-1-0.6-1.7-0.6c-0.8,0-1.5,0.2-2.1,0.6
		c-0.6,0.4-1.1,1-1.4,1.7c-0.4,0.7-0.6,1.5-0.8,2.4c-0.1,0.8-0.1,1.6,0,2.3s0.4,1.2,0.8,1.6C193.8,44.4,194.4,44.6,195.2,44.6z
		 M204.5,47l2.4-14.2h3.2l-0.4,2.4h0.1c0.4-0.8,0.9-1.4,1.6-1.9c0.7-0.4,1.5-0.7,2.3-0.7c0.2,0,0.4,0,0.6,0c0.2,0,0.4,0,0.6,0.1
		l-0.5,3.1c-0.1,0-0.4-0.1-0.7-0.1s-0.6-0.1-0.9-0.1c-0.6,0-1.2,0.1-1.7,0.4c-0.5,0.3-1,0.6-1.3,1.1c-0.4,0.5-0.6,1-0.7,1.6
		l-1.4,8.3C207.7,47,204.5,47,204.5,47z M225,32.8l-0.4,2.6h-8.1l0.4-2.6H225z M219.4,29.4h3.3l-2.2,13.3c-0.1,0.4-0.1,0.8,0,1
		s0.3,0.4,0.5,0.5s0.5,0.1,0.7,0.1s0.4,0,0.6,0c0.2,0,0.3-0.1,0.4-0.1l0.1,2.6c-0.2,0.1-0.5,0.1-0.8,0.2c-0.3,0.1-0.7,0.1-1.2,0.1
		c-0.8,0-1.6-0.1-2.2-0.4c-0.6-0.3-1.1-0.7-1.4-1.3c-0.3-0.6-0.3-1.3-0.2-2.2L219.4,29.4z M229.5,47.3c-0.9,0-1.7-0.2-2.3-0.5
		c-0.7-0.3-1.2-0.8-1.5-1.4c-0.3-0.6-0.4-1.4-0.2-2.3c0.1-0.8,0.4-1.5,0.8-2c0.4-0.5,0.9-0.9,1.4-1.3c0.6-0.3,1.2-0.6,1.8-0.7
		c0.7-0.2,1.4-0.3,2.1-0.4c0.8-0.1,1.5-0.2,2.1-0.2c0.5-0.1,0.9-0.2,1.2-0.3c0.3-0.2,0.4-0.4,0.5-0.7v-0.1c0.1-0.7,0-1.2-0.3-1.6
		c-0.3-0.4-0.9-0.6-1.7-0.6s-1.5,0.2-2,0.5c-0.6,0.4-1,0.8-1.2,1.3l-3-0.4c0.4-0.9,0.9-1.6,1.6-2.2c0.7-0.6,1.4-1,2.3-1.3
		c0.9-0.3,1.8-0.4,2.8-0.4c0.7,0,1.3,0.1,2,0.2c0.7,0.2,1.2,0.4,1.7,0.8c0.5,0.4,0.9,0.9,1.1,1.5c0.2,0.6,0.3,1.4,0.1,2.4L237,47
		h-3.2l0.3-1.9H234c-0.3,0.4-0.6,0.8-1,1.1s-0.9,0.6-1.5,0.8C230.9,47.2,230.2,47.3,229.5,47.3z M230.8,44.8c0.7,0,1.3-0.1,1.8-0.4
		c0.5-0.3,1-0.6,1.3-1.1c0.3-0.4,0.6-0.9,0.6-1.4l0.3-1.7c-0.1,0.1-0.3,0.2-0.6,0.2c-0.3,0.1-0.5,0.1-0.9,0.2
		c-0.3,0.1-0.6,0.1-0.9,0.1c-0.3,0-0.6,0.1-0.8,0.1c-0.5,0.1-1,0.2-1.4,0.3c-0.4,0.2-0.8,0.4-1,0.6c-0.3,0.3-0.4,0.6-0.5,1.1
		c-0.1,0.6,0,1.1,0.4,1.4C229.5,44.7,230.1,44.8,230.8,44.8z M246.9,28.1L243.7,47h-3.3l3.1-18.9H246.9z"/>
</g>
</svg>
