<svg width="200" height="200" viewBox="0 0 200 200" fill="none" xmlns="http://www.w3.org/2000/svg">
<path d="M99.5 26C89.4016 26 79.8771 27.9531 70.9262 31.8593C61.9754 35.6506 54.1721 40.8781 47.5164 47.5416C40.8607 54.2052 35.582 62.0176 31.6803 70.9789C27.8934 79.8253 26 89.3036 26 99.4138C26 109.639 27.8934 119.232 31.6803 128.193C35.582 137.04 40.8607 144.795 47.5164 151.458C54.1721 158.122 61.9754 163.407 70.9262 167.313C79.8771 171.104 89.4016 173 99.5 173C109.598 173 119.123 171.104 128.074 167.313C137.025 163.407 144.828 158.122 151.484 151.458C158.139 144.795 163.361 137.04 167.148 128.193C171.049 119.232 173 109.639 173 99.4138C173 89.3036 171.049 79.8253 167.148 70.9789C163.361 62.0176 158.139 54.2052 151.484 47.5416C144.828 40.8781 137.025 35.6506 128.074 31.8593C119.123 27.9531 109.598 26 99.5 26ZM157.68 92.1759H135.992C135.303 81.2614 133.525 71.9555 130.656 64.2579C127.787 56.4455 124.574 49.9543 121.016 44.7843C125.951 46.7374 130.484 49.3224 134.615 52.5393C138.861 55.6413 142.533 59.2603 145.631 63.3962C148.844 67.4174 151.484 71.898 153.549 76.8382C155.615 81.6635 156.992 86.7761 157.68 92.1759ZM99.3279 156.628C97.7213 155.25 95.7705 153.297 93.4754 150.769C91.1803 148.127 88.9426 144.795 86.7623 140.774C84.582 136.753 82.6311 131.985 80.9098 126.47C79.3033 120.841 78.2131 114.292 77.6393 106.824H121.189C120.73 114.292 119.639 120.841 117.918 126.47C116.197 131.985 114.246 136.753 112.066 140.774C109.885 144.795 107.59 148.127 105.18 150.769C102.885 153.297 100.934 155.25 99.3279 156.628ZM77.6393 92.1759C78.2131 84.7081 79.3033 78.1594 80.9098 72.5299C82.6311 66.9004 84.582 62.075 86.7623 58.0539C89.0574 54.0328 91.2951 50.7585 93.4754 48.231C95.7705 45.5885 97.7213 43.578 99.3279 42.1993C100.934 43.578 102.885 45.5885 105.18 48.231C107.59 50.7585 109.885 54.0328 112.066 58.0539C114.246 62.075 116.197 66.9004 117.918 72.5299C119.639 78.1594 120.73 84.7081 121.189 92.1759H77.6393ZM77.8115 44.7843C74.3689 49.9543 71.2131 56.4455 68.3443 64.2579C65.4754 71.9555 63.6967 81.2614 63.0082 92.1759H41.3197C42.0082 86.7761 43.3279 81.6635 45.2787 76.8382C47.3443 71.898 49.9836 67.4174 53.1967 63.3962C56.4098 59.2603 60.082 55.6413 64.2131 52.5393C68.3443 49.3224 72.877 46.7374 77.8115 44.7843ZM41.3197 106.824H63.0082C63.6967 117.624 65.4754 126.93 68.3443 134.742C71.2131 142.44 74.3689 148.873 77.8115 154.043C72.877 152.09 68.3443 149.563 64.2131 146.461C60.082 143.244 56.4098 139.625 53.1967 135.604C49.9836 131.583 47.3443 127.159 45.2787 122.334C43.3279 117.394 42.0082 112.224 41.3197 106.824ZM121.016 154.216C124.574 149.046 127.787 142.612 130.656 134.914C133.525 127.102 135.303 117.739 135.992 106.824H157.68C156.992 112.224 155.615 117.394 153.549 122.334C151.484 127.159 148.844 131.64 145.631 135.776C142.533 139.797 138.861 143.416 134.615 146.633C130.484 149.735 125.951 152.263 121.016 154.216Z" fill="url(#paint0_linear_1073_47976)"/>
<defs>
<linearGradient id="paint0_linear_1073_47976" x1="99.5" y1="26" x2="99.5" y2="173" gradientUnits="userSpaceOnUse">
<stop stop-color="#B9B9B9"/>
<stop offset="1" stop-color="#B9B9B9" stop-opacity="0.25"/>
</linearGradient>
</defs>
</svg>
