<svg width="200" height="200" viewBox="0 0 200 200" fill="none" xmlns="http://www.w3.org/2000/svg">
<path d="M96.1594 57.7022H82.1454V82.1454H57.8652V95.9965H82.1454V120.277H96.1594V95.9965H120.44V82.1454H96.1594V57.7022ZM148.305 88.9894C148.305 80.8417 146.73 73.1829 143.579 66.0129C140.537 58.8429 136.301 52.5963 130.869 47.2732C125.546 41.95 119.299 37.7675 112.129 34.7257C104.959 31.5752 97.3001 30 89.1524 30C81.0047 30 73.3458 31.5752 66.1758 34.7257C59.0059 37.7675 52.705 41.95 47.2732 47.2732C41.95 52.5963 37.7132 58.8429 34.5627 66.0129C31.5209 73.1829 30 80.8417 30 88.9894C30 97.1372 31.5209 104.85 34.5627 112.129C37.7132 119.299 41.95 125.546 47.2732 130.869C52.705 136.192 59.0059 140.429 66.1758 143.579C73.3458 146.621 81.0047 148.142 89.1524 148.142C97.3001 148.142 104.959 146.621 112.129 143.579C119.299 140.429 125.546 136.192 130.869 130.869C136.301 125.546 140.537 119.299 143.579 112.129C146.73 104.85 148.305 97.1372 148.305 88.9894ZM89.1524 134.291C82.9601 134.291 77.0938 133.096 71.5533 130.706C66.1215 128.316 61.3415 125.111 57.2134 121.091C53.0852 116.963 49.8261 112.183 47.4361 106.751C45.1547 101.211 44.0141 95.2903 44.0141 88.9894C44.0141 82.7972 45.1547 76.9852 47.4361 71.5533C49.8261 66.0129 53.0852 61.2329 57.2134 57.2134C61.3415 53.0852 66.1215 49.8261 71.5533 47.4361C77.0938 45.0461 82.9601 43.8511 89.1524 43.8511C95.3447 43.8511 101.157 45.0461 106.589 47.4361C112.129 49.8261 116.963 53.0852 121.091 57.2134C125.22 61.2329 128.424 66.0129 130.706 71.5533C133.096 76.9852 134.291 82.7972 134.291 88.9894C134.291 95.2903 133.096 101.211 130.706 106.751C128.424 112.183 125.22 116.963 121.091 121.091C116.963 125.111 112.129 128.316 106.589 130.706C101.157 133.096 95.3447 134.291 89.1524 134.291ZM130.706 140.809L140.646 130.706L169 159.06L158.897 169L130.706 140.809Z" fill="url(#paint0_linear_1073_48054)"/>
<defs>
<linearGradient id="paint0_linear_1073_48054" x1="99.5" y1="30" x2="99.5" y2="169" gradientUnits="userSpaceOnUse">
<stop stop-color="#B9B9B9"/>
<stop offset="1" stop-color="#B9B9B9" stop-opacity="0.25"/>
</linearGradient>
</defs>
</svg>
