<svg width="200" height="200" viewBox="0 0 200 200" fill="none" xmlns="http://www.w3.org/2000/svg">
<path d="M72.4194 79.211H100V93.1243H72.4194V79.211ZM72.4194 99.9191H127.581V113.832H72.4194V99.9191ZM72.4194 120.627H127.581V134.54H72.4194V120.627ZM148.226 37.7948H120.645V31H79.3548V37.7948H51.7742C49.9462 37.7948 48.3333 38.4959 46.9355 39.898C45.6452 41.1923 45 42.8101 45 44.7515V162.043C45 163.985 45.6452 165.657 46.9355 167.059C48.3333 168.353 49.9462 169 51.7742 169H148.226C150.054 169 151.613 168.353 152.903 167.059C154.301 165.657 155 163.985 155 162.043V44.7515C155 42.8101 154.301 41.1923 152.903 39.898C151.613 38.4959 150.054 37.7948 148.226 37.7948ZM141.29 155.249H58.7097V51.7081H79.3548V58.5029H120.645V51.7081H141.29V155.249Z" fill="url(#paint0_linear_1073_48028)"/>
<defs>
<linearGradient id="paint0_linear_1073_48028" x1="100" y1="31" x2="100" y2="169" gradientUnits="userSpaceOnUse">
<stop stop-color="#B9B9B9"/>
<stop offset="1" stop-color="#B9B9B9" stop-opacity="0.25"/>
</linearGradient>
</defs>
</svg>
