<svg width="200" height="200" viewBox="0 0 200 200" fill="none" xmlns="http://www.w3.org/2000/svg">
<path d="M99.5 16L31 46.3636V91.9091C31 102.536 32.5222 112.405 36.3278 122.273C40.1333 132.141 44.7 141.25 50.7889 149.6C56.8778 157.95 64.4889 164.782 72.1 170.855C79.7111 176.927 89.6056 180.723 99.5 183C109.394 180.723 118.528 176.168 126.9 170.855C135.272 165.541 142.122 157.95 148.211 149.6C154.3 141.25 158.867 132.141 162.672 122.273C166.478 112.405 168 101.777 168 91.9091V46.3636L99.5 16ZM152.778 93.4273C152.778 101.777 151.256 109.368 148.211 117.718C145.928 123.791 142.883 129.864 139.839 135.177C137.556 129.864 134.511 126.068 130.706 122.273C126.9 118.477 122.333 115.441 117.006 113.164C111.678 110.886 105.589 110.886 99.5 110.886C93.4111 110.886 87.3222 111.645 81.9944 113.923C76.6667 116.2 72.1 118.477 68.2944 122.273C64.4889 126.068 61.4444 129.864 59.1611 135.177C55.3556 129.864 53.0722 123.791 50.7889 117.718C47.7444 110.127 46.2222 101.777 46.2222 93.4273V56.2318L99.5 32.7L152.778 56.2318V93.4273Z" fill="url(#paint0_linear_1073_48041)"/>
<path d="M83.5167 67.6182C79.7111 71.4136 77.4278 76.7273 77.4278 82.8C77.4278 88.8727 79.7111 94.1864 84.2778 98.7409C88.8444 103.295 94.1722 105.573 100.261 105.573C106.35 105.573 111.678 103.295 116.244 98.7409C120.811 94.1864 123.094 88.8727 123.094 82.8C123.094 76.7273 120.811 71.4136 116.244 66.8591C111.678 62.3045 105.589 60.7864 99.5 60.7864C93.4111 60.7864 88.0833 63.0636 83.5167 67.6182Z" fill="url(#paint1_linear_1073_48041)"/>
<defs>
<linearGradient id="paint0_linear_1073_48041" x1="99.5" y1="16" x2="99.5" y2="183" gradientUnits="userSpaceOnUse">
<stop stop-color="#B9B9B9"/>
<stop offset="1" stop-color="#B9B9B9" stop-opacity="0.25"/>
</linearGradient>
<linearGradient id="paint1_linear_1073_48041" x1="99.5" y1="16" x2="99.5" y2="183" gradientUnits="userSpaceOnUse">
<stop stop-color="#B9B9B9"/>
<stop offset="1" stop-color="#B9B9B9" stop-opacity="0.25"/>
</linearGradient>
</defs>
</svg>
