<svg width="200" height="200" viewBox="0 0 200 200" fill="none" xmlns="http://www.w3.org/2000/svg">
<path d="M148.649 107.53C148.752 107.114 148.804 106.698 148.804 106.283C148.908 105.867 148.96 105.451 148.96 105.035L149.115 104.723C149.115 104.619 149.115 104.515 149.115 104.411C149.115 104.308 149.115 104.204 149.115 104.1C149.219 103.268 149.271 102.488 149.271 101.761C149.271 101.033 149.271 100.254 149.271 99.422C149.271 98.6944 149.271 97.9668 149.271 97.2392C149.271 96.4076 149.219 95.628 149.115 94.9004C149.115 94.7964 149.115 94.6925 149.115 94.5885C149.115 94.4846 149.115 94.3806 149.115 94.2767L148.96 93.9648C148.96 93.549 148.908 93.1333 148.804 92.7175C148.804 92.1977 148.752 91.73 148.649 91.3142L162.326 80.2438C162.637 79.932 162.845 79.6202 162.948 79.3083C163.052 78.8925 163 78.5287 162.793 78.2169L149.581 54.3611C149.374 54.0492 149.063 53.8413 148.649 53.7374C148.338 53.5295 147.975 53.5295 147.561 53.7374L131.241 60.286C131.137 60.286 131.034 60.2341 130.93 60.1301C130.826 60.0262 130.723 59.9742 130.619 59.9742L129.531 59.0387C129.428 58.9347 129.272 58.8308 129.065 58.7268C128.858 58.519 128.651 58.3111 128.443 58.1032C128.34 58.1032 128.236 58.0512 128.132 57.9472C128.029 57.8433 127.925 57.7913 127.822 57.7913L127.511 57.4795C125.853 56.44 124.195 55.4525 122.537 54.517C120.879 53.5815 119.169 52.8019 117.408 52.1782L114.921 34.4033C114.921 33.9875 114.766 33.6757 114.455 33.4678C114.144 33.1559 113.781 33 113.367 33H86.6332C86.2188 33 85.8561 33.1559 85.5452 33.4678C85.2344 33.6757 85.0789 33.9875 85.0789 34.4033L82.5921 52.1782C80.8306 52.8019 79.1209 53.5815 77.463 54.517C75.8051 55.4525 74.1472 56.44 72.4893 57.4795L72.1785 57.7913C72.0748 57.7913 71.9712 57.8433 71.8676 57.9472C71.764 58.0512 71.6604 58.1032 71.5567 58.1032C71.3495 58.3111 71.1423 58.467 70.935 58.5709C70.8314 58.6749 70.676 58.8308 70.4688 59.0387L69.3808 59.9742C69.2771 59.9742 69.1735 60.0262 69.0699 60.1301C68.9663 60.2341 68.8627 60.286 68.759 60.286L52.4391 53.7374C52.0247 53.5295 51.6102 53.5295 51.1957 53.7374C50.8849 53.8413 50.6258 54.1012 50.4186 54.517L37.2072 78.2169C37 78.5287 36.9482 78.8925 37.0518 79.3083C37.1554 79.6202 37.3627 79.932 37.6735 80.2438L51.3512 91.3142C51.2475 91.73 51.1439 92.1458 51.0403 92.5615C51.0403 92.9773 51.0403 93.3931 51.0403 93.8089V94.2767C50.9367 94.3806 50.8849 94.4846 50.8849 94.5885C50.8849 94.6925 50.8849 94.7964 50.8849 94.9004C50.7813 95.628 50.7294 96.4076 50.7294 97.2392C50.7294 97.9668 50.7294 98.6944 50.7294 99.422C50.7294 100.254 50.7294 101.033 50.7294 101.761C50.7294 102.488 50.7813 103.268 50.8849 104.1C50.8849 104.204 50.8849 104.308 50.8849 104.411C50.8849 104.515 50.9367 104.619 51.0403 104.723V105.035C51.0403 105.451 51.0403 105.867 51.0403 106.283C51.1439 106.698 51.2475 107.114 51.3512 107.53L37.6735 118.756C37.3627 118.964 37.1554 119.276 37.0518 119.692C36.9482 120.107 37 120.471 37.2072 120.783L50.4186 144.483C50.6258 144.899 50.8849 145.159 51.1957 145.263C51.6102 145.367 52.0247 145.367 52.4391 145.263L68.759 138.558C68.8627 138.662 68.9663 138.766 69.0699 138.87C69.1735 138.87 69.2253 138.922 69.2253 139.026L70.4688 139.961C70.5724 140.065 70.7278 140.221 70.935 140.429C71.1423 140.533 71.3495 140.637 71.5567 140.741C71.6604 140.845 71.7122 140.949 71.7122 141.053C71.8158 141.053 71.9194 141.105 72.023 141.209L72.3339 141.365C73.9918 142.508 75.6497 143.547 77.3076 144.483C79.0691 145.315 80.8306 146.094 82.5921 146.822L85.0789 164.597C85.0789 165.013 85.2344 165.376 85.5452 165.688C85.8561 165.896 86.2188 166 86.6332 166H113.367C113.781 166 114.144 165.896 114.455 165.688C114.766 165.376 114.921 165.013 114.921 164.597L117.408 146.822C119.169 146.094 120.879 145.315 122.537 144.483C124.299 143.547 126.008 142.508 127.666 141.365L127.977 141.209C128.081 141.105 128.132 141.053 128.132 141.053C128.236 140.949 128.34 140.845 128.443 140.741C128.651 140.637 128.858 140.533 129.065 140.429C129.272 140.221 129.479 140.065 129.687 139.961L130.775 139.026C130.775 138.922 130.826 138.87 130.93 138.87C131.034 138.766 131.137 138.662 131.241 138.558L147.561 145.263C147.975 145.367 148.338 145.367 148.649 145.263C149.063 145.159 149.374 144.899 149.581 144.483L162.793 120.783C163 120.471 163.052 120.107 162.948 119.692C162.845 119.276 162.637 118.964 162.326 118.756L148.649 107.53ZM123.314 99.422C123.314 105.867 121.035 111.376 116.475 115.95C111.916 120.523 106.424 122.81 100 122.81C93.5757 122.81 88.0839 120.523 83.5247 115.95C79.0691 111.376 76.8413 105.867 76.8413 99.422C76.8413 93.0813 79.0691 87.6241 83.5247 83.0504C88.0839 78.4767 93.5757 76.1899 100 76.1899C106.424 76.1899 111.916 78.4767 116.475 83.0504C121.035 87.6241 123.314 93.0813 123.314 99.422Z" fill="url(#paint0_linear_1073_48067)"/>
<defs>
<linearGradient id="paint0_linear_1073_48067" x1="100" y1="33" x2="100" y2="166" gradientUnits="userSpaceOnUse">
<stop stop-color="#B9B9B9"/>
<stop offset="1" stop-color="#B9B9B9" stop-opacity="0.25"/>
</linearGradient>
</defs>
</svg>
