<svg width="200" height="200" viewBox="0 0 200 200" fill="none" xmlns="http://www.w3.org/2000/svg">
<path d="M110.9 99.4327C110.9 102.661 109.782 105.396 107.547 107.637C105.312 109.879 102.629 111 99.5 111C96.3707 111 93.6884 109.879 91.4531 107.637C89.2179 105.396 88.1003 102.661 88.1003 99.4327C88.1003 96.2943 89.2179 93.6043 91.4531 91.3626C93.6884 89.1209 96.3707 88 99.5 88C102.629 88 105.312 89.1209 107.547 91.3626C109.782 93.6043 110.9 96.2943 110.9 99.4327ZM151 99.4327C151 102.661 149.882 105.396 147.647 107.637C145.412 109.879 142.73 111 139.6 111C136.382 111 133.655 109.879 131.419 107.637C129.184 105.396 128.066 102.661 128.066 99.4327C128.066 96.2943 129.184 93.6043 131.419 91.3626C133.655 89.1209 136.382 88 139.6 88C142.73 88 145.412 89.1209 147.647 91.3626C149.882 93.6043 151 96.2943 151 99.4327ZM70.9336 99.4327C70.9336 102.661 69.816 105.396 67.5807 107.637C65.3455 109.879 62.6185 111 59.3997 111C56.2704 111 53.5881 109.879 51.3529 107.637C49.1176 105.396 48 102.661 48 99.4327C48 96.2943 49.1176 93.6043 51.3529 91.3626C53.5881 89.1209 56.2704 88 59.3997 88C62.6185 88 65.3455 89.1209 67.5807 91.3626C69.816 93.6043 70.9336 96.2943 70.9336 99.4327Z" fill="#B9B9B9" fill-opacity="0.73"/>
<path d="M99.5 23C88.9895 23 79.0761 25.0328 69.76 29.0985C60.4438 33.0445 52.322 38.4853 45.3946 45.4209C38.4672 52.3564 32.9731 60.4877 28.9122 69.8148C24.9707 79.0223 23 88.8875 23 99.4103C23 110.053 24.9707 120.038 28.9122 129.365C32.9731 138.572 38.4672 146.644 45.3946 153.579C52.322 160.515 60.4438 166.015 69.76 170.081C79.0761 174.027 88.9895 176 99.5 176C110.011 176 119.924 174.027 129.24 170.081C138.556 166.015 146.678 160.515 153.605 153.579C160.533 146.644 165.967 138.572 169.909 129.365C173.97 120.038 176 110.053 176 99.4103C176 88.8875 173.97 79.0223 169.909 69.8148C165.967 60.4877 160.533 52.3564 153.605 45.4209C146.678 38.4853 138.556 33.0445 129.24 29.0985C119.924 25.0328 110.011 23 99.5 23ZM99.5 160.754C91.0199 160.754 83.0773 159.14 75.6721 155.911C68.267 152.682 61.7576 148.318 56.144 142.817C50.6499 137.197 46.2904 130.68 43.0656 123.266C39.9602 115.852 38.4075 107.9 38.4075 99.4103C38.4075 91.0399 39.9602 83.1477 43.0656 75.7339C46.2904 68.2005 50.6499 61.6835 56.144 56.1829C61.7576 50.6823 68.267 46.3177 75.6721 43.0891C83.0773 39.8605 91.0199 38.2462 99.5 38.2462C107.98 38.2462 115.923 39.8605 123.328 43.0891C130.733 46.3177 137.183 50.6823 142.677 56.1829C148.29 61.6835 152.65 68.2005 155.755 75.7339C158.98 83.1477 160.592 91.0399 160.592 99.4103C160.592 107.9 158.98 115.852 155.755 123.266C152.65 130.68 148.29 137.197 142.677 142.817C137.183 148.318 130.733 152.682 123.328 155.911C115.923 159.14 107.98 160.754 99.5 160.754Z" fill="url(#paint0_linear_1073_47963)"/>
<defs>
<linearGradient id="paint0_linear_1073_47963" x1="99.5" y1="23" x2="99.5" y2="176" gradientUnits="userSpaceOnUse">
<stop stop-color="#B9B9B9"/>
<stop offset="1" stop-color="#B9B9B9" stop-opacity="0.25"/>
</linearGradient>
</defs>
</svg>
