<svg width="200" height="200" viewBox="0 0 200 200" fill="none" xmlns="http://www.w3.org/2000/svg">
<path d="M107.391 34H34V166H78V136.781H92.6094V166H166V34H107.391ZM63.3906 151.391H48.6094V136.781H63.3906V151.391ZM63.3906 122H48.6094V107.391H63.3906V122ZM63.3906 92.7812H48.6094V78H63.3906V92.7812ZM63.3906 63.3906H48.6094V48.7812H63.3906V63.3906ZM92.6094 122H78V107.391H92.6094V122ZM92.6094 92.7812H78V78H92.6094V92.7812ZM92.6094 63.3906H78V48.7812H92.6094V63.3906ZM122 151.391H107.391V136.781H122V151.391ZM122 122H107.391V107.391H122V122ZM122 92.7812H107.391V78H122V92.7812ZM122 63.3906H107.391V48.7812H122V63.3906ZM151.391 151.391H136.609V136.781H151.391V151.391ZM151.391 122H136.609V107.391H151.391V122ZM151.391 92.7812H136.609V78H151.391V92.7812ZM151.391 63.3906H136.609V48.7812H151.391V63.3906Z" fill="url(#paint0_linear_1073_48002)"/>
<defs>
<linearGradient id="paint0_linear_1073_48002" x1="100" y1="34" x2="100" y2="166" gradientUnits="userSpaceOnUse">
<stop stop-color="#B9B9B9"/>
<stop offset="1" stop-color="#B9B9B9" stop-opacity="0.25"/>
</linearGradient>
</defs>
</svg>
