<svg width="200" height="200" viewBox="0 0 200 200" fill="none" xmlns="http://www.w3.org/2000/svg">
<path d="M110.666 87.3369C104.477 81.1509 96.0851 77.6758 87.3349 77.6758C78.5846 77.6758 70.1926 81.1509 64.004 87.3369L40.6655 110.668C34.4768 116.857 31 125.25 31 134.002C31 142.755 34.4768 151.148 40.6655 157.337C46.8543 163.526 55.248 167.003 64.0002 167.003C72.7524 167.003 81.1461 163.526 87.3349 157.337L99.0003 145.672M87.3347 110.666C93.5233 116.852 101.915 120.327 110.666 120.327C119.416 120.327 127.808 116.852 133.996 110.666L157.335 87.3349C163.524 81.1461 167 72.7524 167 64.0002C167 55.248 163.524 46.8543 157.335 40.6655C151.146 34.4768 142.752 31 134 31C125.248 31 116.854 34.4768 110.666 40.6655L99.0002 52.331" stroke="url(#paint0_linear_1073_47950)" stroke-width="15" stroke-linecap="square" stroke-linejoin="round"/>
<defs>
<linearGradient id="paint0_linear_1073_47950" x1="127.168" y1="31" x2="127.168" y2="120.327" gradientUnits="userSpaceOnUse">
<stop stop-color="#B9B9B9"/>
<stop offset="1" stop-color="#B9B9B9" stop-opacity="0.25"/>
</linearGradient>
</defs>
</svg>
