<svg width="16" height="15" viewBox="0 0 16 15" fill="none" xmlns="http://www.w3.org/2000/svg">
<path d="M11.0262 14.194L11.0262 14.194L11.0322 14.1957C11.1657 14.2317 11.3007 14.25 11.4365 14.25C11.5806 14.25 11.7207 14.2322 11.8561 14.1957L11.8562 14.196L11.8693 14.1917C12.0128 14.1444 12.1435 14.0782 12.2586 13.9913C12.5002 13.8338 12.6769 13.6232 12.7785 13.3612C12.8879 13.0956 12.919 12.8198 12.8697 12.5393L12.8698 12.5393L12.8684 12.5326L12.2193 9.3531L14.555 7.31993C14.7793 7.14544 14.9317 6.91814 15.0073 6.64444C15.0809 6.37741 15.0809 6.10794 15.0073 5.8409L15.0076 5.8408L15.0031 5.82751C14.9166 5.5709 14.7677 5.35095 14.5606 5.17034C14.3502 4.98676 14.1051 4.87433 13.8305 4.83692L10.5266 4.33893L9.22694 1.5793L9.22695 1.57929L9.226 1.57733C9.10333 1.32265 8.9227 1.11855 8.68612 0.970826C8.45003 0.823416 8.18812 0.75 7.90625 0.75C7.62438 0.75 7.36247 0.823416 7.12638 0.970826C6.8898 1.11855 6.70917 1.32265 6.5865 1.57733L6.58649 1.57732L6.58556 1.5793L5.28586 4.33893L1.98202 4.83692C1.70739 4.87433 1.46234 4.98676 1.25189 5.17034C1.04484 5.35095 0.895871 5.5709 0.80935 5.82751L0.808978 5.82739L0.805249 5.8409C0.731584 6.10794 0.731584 6.37741 0.805249 6.64444C0.879979 6.91533 1.02551 7.14252 1.24025 7.31826L3.60842 9.35412L2.95986 12.5309C2.89878 12.8103 2.91752 13.0868 3.01607 13.3548L3.01851 13.3614L3.02132 13.3679C3.13301 13.6255 3.30817 13.8354 3.54227 13.9937C3.77601 14.1518 4.03663 14.2376 4.31906 14.2498L4.31905 14.25H4.3298C4.61583 14.25 4.88332 14.1848 5.12751 14.052L5.12764 14.0522L5.13746 14.0463L7.90681 12.3715L10.6715 14.0289C10.7825 14.1014 10.9009 14.1568 11.0262 14.194Z" stroke="#333333" stroke-width="0.5"/>
</svg>
