<svg width="200" height="200" viewBox="0 0 200 200" fill="none" xmlns="http://www.w3.org/2000/svg">
<path d="M169.45 73.5388H129.523C127.651 73.5388 126.04 74.2113 124.688 75.5564C123.44 76.7979 122.817 78.2982 122.817 80.0571V146.326C122.817 148.189 123.44 149.793 124.688 151.138C126.04 152.379 127.651 153 129.523 153H169.45C171.217 153 172.725 152.379 173.972 151.138C175.324 149.793 176 148.189 176 146.326V80.0571C176 78.2982 175.324 76.7979 173.972 75.5564C172.725 74.2113 171.217 73.5388 169.45 73.5388ZM162.743 133.135H136.073V86.7306H162.743V133.135ZM162.743 53.6735C162.743 51.8111 162.067 50.2592 160.716 49.0176C159.468 47.6725 157.908 47 156.037 47H42.9633C41.0917 47 39.4801 47.6725 38.1284 49.0176C36.8807 50.2592 36.2569 51.8111 36.2569 53.6735V60.1918V133.135H23V153H116.11V133.135H49.6697V60.1918H149.486V66.8653H162.743V53.6735Z" fill="url(#paint0_linear_1073_47937)"/>
<defs>
<linearGradient id="paint0_linear_1073_47937" x1="99.5" y1="47" x2="99.5" y2="153" gradientUnits="userSpaceOnUse">
<stop stop-color="#B9B9B9"/>
<stop offset="1" stop-color="#B9B9B9" stop-opacity="0.25"/>
</linearGradient>
</defs>
</svg>
